Commissioner-LoudThin.ufo
<glyph name="numbersign" format="2">
  <advance width="1342"/>
  <unicode hex="0023"/>
  <outline>
    <contour>
      <point x="40" y="338" type="line"/>
      <point x="156" y="340"/>
      <point x="290" y="342"/>
      <point x="360" y="342" type="curve"/>
      <point x="860" y="342" type="line"/>
      <point x="930" y="342"/>
      <point x="1064" y="340"/>
      <point x="1180" y="338" type="curve"/>
      <point x="1180" y="402" type="line"/>
      <point x="1064" y="400"/>
      <point x="930" y="398"/>
      <point x="860" y="398" type="curve"/>
      <point x="360" y="398" type="line"/>
      <point x="290" y="398"/>
      <point x="156" y="400"/>
      <point x="40" y="402" type="curve"/>
    </contour>
    <contour>
      <point x="256" y="0" type="curve"/>
      <point x="326" y="0" type="line"/>
      <point x="354" y="134"/>
      <point x="378" y="250"/>
      <point x="412" y="418" type="curve"/>
      <point x="510" y="868" type="line"/>
      <point x="548" y="1042"/>
      <point x="576" y="1160"/>
      <point x="608" y="1306" type="curve"/>
      <point x="538" y="1306" type="line"/>
      <point x="510" y="1166"/>
      <point x="486" y="1048"/>
      <point x="448" y="872" type="curve"/>
      <point x="350" y="418" type="line"/>
      <point x="312" y="250"/>
      <point x="286" y="134"/>
    </contour>
    <contour>
      <point x="162" y="898" type="line"/>
      <point x="278" y="900"/>
      <point x="412" y="902"/>
      <point x="482" y="902" type="curve"/>
      <point x="982" y="902" type="line"/>
      <point x="1052" y="902"/>
      <point x="1186" y="900"/>
      <point x="1302" y="898" type="curve"/>
      <point x="1302" y="962" type="line"/>
      <point x="1186" y="960"/>
      <point x="1052" y="958"/>
      <point x="982" y="958" type="curve"/>
      <point x="482" y="958" type="line"/>
      <point x="412" y="958"/>
      <point x="278" y="960"/>
      <point x="162" y="962" type="curve"/>
    </contour>
    <contour>
      <point x="716" y="0" type="curve"/>
      <point x="786" y="0" type="line"/>
      <point x="814" y="134"/>
      <point x="838" y="250"/>
      <point x="872" y="418" type="curve"/>
      <point x="970" y="868" type="line"/>
      <point x="1008" y="1042"/>
      <point x="1036" y="1160"/>
      <point x="1068" y="1306" type="curve"/>
      <point x="998" y="1306" type="line"/>
      <point x="970" y="1166"/>
      <point x="946" y="1048"/>
      <point x="908" y="872" type="curve"/>
      <point x="810" y="418" type="line"/>
      <point x="772" y="250"/>
      <point x="746" y="134"/>
    </contour>
  </outline>
</glyph>
<glyph name="percent" format="2">
  <advance width="1668"/>
  <unicode hex="0025"/>
  <outline>
    <contour>
      <point x="392" y="0" type="curve"/>
      <point x="472" y="0" type="line"/>
      <point x="552" y="146"/>
      <point x="624" y="276"/>
      <point x="724" y="458" type="curve"/>
      <point x="1002" y="954" type="line"/>
      <point x="1110" y="1144"/>
      <point x="1184" y="1272"/>
      <point x="1272" y="1426" type="curve"/>
      <point x="1192" y="1426" type="line"/>
      <point x="1108" y="1272"/>
      <point x="1038" y="1144"/>
      <point x="934" y="954" type="curve"/>
      <point x="656" y="458" type="line"/>
      <point x="550" y="274"/>
      <point x="476" y="146"/>
    </contour>
    <contour>
      <point x="432" y="756" type="curve" smooth="yes"/>
      <point x="636" y="756"/>
      <point x="784" y="894"/>
      <point x="784" y="1100" type="curve" smooth="yes"/>
      <point x="784" y="1300"/>
      <point x="636" y="1450"/>
      <point x="434" y="1450" type="curve" smooth="yes"/>
      <point x="230" y="1450"/>
      <point x="80" y="1300"/>
      <point x="80" y="1100" type="curve" smooth="yes"/>
      <point x="80" y="894"/>
      <point x="230" y="756"/>
    </contour>
    <contour>
      <point x="432" y="818" type="curve"/>
      <point x="254" y="822"/>
      <point x="142" y="922"/>
      <point x="142" y="1100" type="curve" smooth="yes"/>
      <point x="142" y="1272"/>
      <point x="254" y="1384"/>
      <point x="434" y="1388" type="curve"/>
      <point x="614" y="1384"/>
      <point x="722" y="1272"/>
      <point x="722" y="1100" type="curve" smooth="yes"/>
      <point x="722" y="922"/>
      <point x="614" y="822"/>
    </contour>
    <contour>
      <point x="1236" y="-18" type="curve" smooth="yes"/>
      <point x="1440" y="-18"/>
      <point x="1588" y="120"/>
      <point x="1588" y="326" type="curve" smooth="yes"/>
      <point x="1588" y="526"/>
      <point x="1440" y="676"/>
      <point x="1238" y="676" type="curve" smooth="yes"/>
      <point x="1034" y="676"/>
      <point x="884" y="526"/>
      <point x="884" y="326" type="curve" smooth="yes"/>
      <point x="884" y="120"/>
      <point x="1034" y="-18"/>
    </contour>
    <contour>
      <point x="1236" y="44" type="curve"/>
      <point x="1058" y="48"/>
      <point x="946" y="148"/>
      <point x="946" y="326" type="curve" smooth="yes"/>
      <point x="946" y="498"/>
      <point x="1058" y="610"/>
      <point x="1238" y="614" type="curve"/>
      <point x="1418" y="610"/>
      <point x="1526" y="498"/>
      <point x="1526" y="326" type="curve" smooth="yes"/>
      <point x="1526" y="148"/>
      <point x="1418" y="48"/>
    </contour>
  </outline>
</glyph>
<glyph name="ampersand" format="2">
  <advance width="1420"/>
  <unicode hex="0026"/>
  <outline>
    <contour>
      <point x="1280" y="0" type="curve"/>
      <point x="1380" y="0" type="line"/>
      <point x="1270" y="104"/>
      <point x="1160" y="210"/>
      <point x="1048" y="316" type="curve"/>
      <point x="568" y="782" type="line" smooth="yes"/>
      <point x="430" y="916"/>
      <point x="366" y="1006"/>
      <point x="366" y="1130" type="curve" smooth="yes"/>
      <point x="366" y="1274"/>
      <point x="454" y="1384"/>
      <point x="608" y="1388" type="curve"/>
      <point x="742" y="1384"/>
      <point x="836" y="1298"/>
      <point x="836" y="1150" type="curve" smooth="yes"/>
      <point x="836" y="1024"/>
      <point x="688" y="924"/>
      <point x="526" y="814" type="curve"/>
      <point x="564" y="768" type="line"/>
      <point x="720" y="874"/>
      <point x="898" y="992"/>
      <point x="898" y="1150" type="curve" smooth="yes"/>
      <point x="898" y="1336"/>
      <point x="766" y="1450"/>
      <point x="608" y="1450" type="curve" smooth="yes"/>
      <point x="440" y="1450"/>
      <point x="304" y="1322"/>
      <point x="304" y="1130" type="curve" smooth="yes"/>
      <point x="304" y="978"/>
      <point x="388" y="870"/>
      <point x="524" y="738" type="curve" smooth="yes"/>
      <point x="1004" y="272" type="line"/>
      <point x="1096" y="182"/>
      <point x="1190" y="88"/>
    </contour>
    <contour>
      <point x="552" y="-18" type="curve" smooth="yes"/>
      <point x="672" y="-18"/>
      <point x="806" y="76"/>
      <point x="1014" y="252" type="curve"/>
      <point x="1038" y="252" type="line"/>
      <point x="1034" y="274" type="line"/>
      <point x="984" y="308" type="line"/>
      <point x="770" y="122"/>
      <point x="646" y="44"/>
      <point x="552" y="44" type="curve"/>
      <point x="314" y="48"/>
      <point x="182" y="168"/>
      <point x="182" y="362" type="curve" smooth="yes"/>
      <point x="182" y="562"/>
      <point x="334" y="680"/>
      <point x="526" y="768" type="curve"/>
      <point x="496" y="820" type="line"/>
      <point x="322" y="740"/>
      <point x="120" y="606"/>
      <point x="120" y="362" type="curve" smooth="yes"/>
      <point x="120" y="156"/>
      <point x="264" y="-18"/>
    </contour>
    <contour>
      <point x="1056" y="296" type="line"/>
      <point x="1138" y="422"/>
      <point x="1218" y="544"/>
      <point x="1300" y="670" type="curve"/>
      <point x="1236" y="706" type="line"/>
      <point x="1160" y="580"/>
      <point x="1088" y="464"/>
      <point x="1008" y="332" type="curve"/>
    </contour>
  </outline>
</glyph>
<glyph name="parenleft" format="2">
  <advance width="728"/>
  <unicode hex="0028"/>
  <outline>
    <contour>
      <point x="564" y="-224" type="curve"/>
      <point x="630" y="-194" type="line"/>
      <point x="426" y="42"/>
      <point x="204" y="328"/>
      <point x="204" y="648" type="curve" smooth="yes"/>
      <point x="204" y="970"/>
      <point x="426" y="1254"/>
      <point x="630" y="1490" type="curve"/>
      <point x="564" y="1520" type="line"/>
      <point x="368" y="1274"/>
      <point x="140" y="986"/>
      <point x="140" y="648" type="curve" smooth="yes"/>
      <point x="140" y="312"/>
      <point x="368" y="22"/>
    </contour>
  </outline>
</glyph>
<glyph name="comma" format="2">
  <advance width="428"/>
  <unicode hex="002C"/>
  <outline>
    <contour>
      <point x="116" y="-314" type="curve"/>
      <point x="162" y="-312" type="line"/>
      <point x="218" y="-178"/>
      <point x="304" y="18"/>
      <point x="304" y="88" type="curve" smooth="yes"/>
      <point x="304" y="136"/>
      <point x="282" y="170"/>
      <point x="238" y="172" type="curve"/>
      <point x="186" y="170" type="line"/>
      <point x="188" y="122"/>
      <point x="192" y="74"/>
      <point x="194" y="26" type="curve"/>
      <point x="170" y="-88"/>
      <point x="146" y="-196"/>
    </contour>
  </outline>
</glyph>
<glyph name="hyphen" format="2">
  <advance width="840"/>
  <unicode hex="002D"/>
  <outline>
    <contour>
      <point x="140" y="556" type="line"/>
      <point x="242" y="558"/>
      <point x="358" y="560"/>
      <point x="420" y="560" type="curve"/>
      <point x="482" y="560"/>
      <point x="598" y="558"/>
      <point x="700" y="556" type="curve"/>
      <point x="700" y="624" type="line"/>
      <point x="598" y="622"/>
      <point x="482" y="620"/>
      <point x="420" y="620" type="curve"/>
      <point x="358" y="620"/>
      <point x="242" y="622"/>
      <point x="140" y="624" type="curve"/>
    </contour>
  </outline>
</glyph>
<glyph name="one" format="2">
  <advance width="816"/>
  <unicode hex="0031"/>
  <outline>
    <contour>
      <point x="100" y="1046" type="line"/>
      <point x="244" y="1132"/>
      <point x="390" y="1218"/>
      <point x="534" y="1304" type="curve"/>
      <point x="534" y="1372" type="line"/>
      <point x="382" y="1286"/>
      <point x="230" y="1202"/>
      <point x="78" y="1116" type="curve"/>
    </contour>
    <contour>
      <point x="502" y="0" type="curve"/>
      <point x="572" y="0" type="line"/>
      <point x="570" y="150"/>
      <point x="568" y="280"/>
      <point x="566" y="442" type="curve"/>
      <point x="566" y="894" type="line"/>
      <point x="568" y="1064"/>
      <point x="570" y="1224"/>
      <point x="572" y="1368" type="curve"/>
      <point x="534" y="1372" type="line"/>
      <point x="504" y="1336" type="line"/>
      <point x="504" y="1188"/>
      <point x="506" y="1020"/>
      <point x="506" y="894" type="curve"/>
      <point x="506" y="442" type="line"/>
      <point x="504" y="280"/>
      <point x="504" y="150"/>
    </contour>
  </outline>
</glyph>
<glyph name="three" format="2">
  <advance width="1122"/>
  <unicode hex="0033"/>
  <outline>
    <contour>
      <point x="548" y="-18" type="curve" smooth="yes"/>
      <point x="850" y="-18"/>
      <point x="1002" y="150"/>
      <point x="1002" y="358" type="curve" smooth="yes"/>
      <point x="1002" y="584"/>
      <point x="824" y="698"/>
      <point x="678" y="722" type="curve"/>
      <point x="678" y="734" type="line"/>
      <point x="824" y="770"/>
      <point x="950" y="898"/>
      <point x="950" y="1070" type="curve" smooth="yes"/>
      <point x="950" y="1270"/>
      <point x="778" y="1392"/>
      <point x="558" y="1392" type="curve" smooth="yes"/>
      <point x="470" y="1392"/>
      <point x="236" y="1302"/>
      <point x="132" y="1258" type="curve"/>
      <point x="144" y="1184" type="line"/>
      <point x="322" y="1264"/>
      <point x="508" y="1328"/>
      <point x="560" y="1328" type="curve"/>
      <point x="746" y="1326"/>
      <point x="888" y="1248"/>
      <point x="888" y="1070" type="curve" smooth="yes"/>
      <point x="888" y="896"/>
      <point x="758" y="756"/>
      <point x="448" y="756" type="curve"/>
      <point x="416" y="756"/>
      <point x="384" y="758"/>
      <point x="352" y="758" type="curve"/>
      <point x="352" y="694" type="line"/>
      <point x="384" y="694"/>
      <point x="416" y="696"/>
      <point x="448" y="696" type="curve"/>
      <point x="756" y="696"/>
      <point x="940" y="576"/>
      <point x="940" y="358" type="curve" smooth="yes"/>
      <point x="940" y="178"/>
      <point x="822" y="48"/>
      <point x="546" y="46" type="curve"/>
      <point x="446" y="46"/>
      <point x="290" y="100"/>
      <point x="112" y="170" type="curve"/>
      <point x="100" y="98" type="line"/>
      <point x="264" y="40"/>
      <point x="448" y="-18"/>
    </contour>
  </outline>
</glyph>
<glyph name="five" format="2">
  <advance width="1136"/>
  <unicode hex="0035"/>
  <outline>
    <contour>
      <point x="544" y="-18" type="curve" smooth="yes"/>
      <point x="844" y="-18"/>
      <point x="1016" y="162"/>
      <point x="1016" y="434" type="curve" smooth="yes"/>
      <point x="1016" y="730"/>
      <point x="812" y="866"/>
      <point x="570" y="866" type="curve" smooth="yes"/>
      <point x="460" y="866"/>
      <point x="350" y="820"/>
      <point x="264" y="782" type="curve"/>
      <point x="252" y="782" type="line"/>
      <point x="252" y="894" type="line"/>
      <point x="252" y="1020"/>
      <point x="254" y="1188"/>
      <point x="254" y="1336" type="curve"/>
      <point x="226" y="1308" type="line"/>
      <point x="434" y="1308" type="line"/>
      <point x="596" y="1306"/>
      <point x="762" y="1304"/>
      <point x="926" y="1302" type="curve"/>
      <point x="926" y="1368" type="line"/>
      <point x="186" y="1368" type="line"/>
      <point x="188" y="1224"/>
      <point x="190" y="1064"/>
      <point x="192" y="894" type="curve"/>
      <point x="192" y="692" type="line"/>
      <point x="224" y="688" type="line"/>
      <point x="344" y="762"/>
      <point x="484" y="802"/>
      <point x="570" y="802" type="curve"/>
      <point x="778" y="800"/>
      <point x="954" y="706"/>
      <point x="954" y="434" type="curve" smooth="yes"/>
      <point x="954" y="190"/>
      <point x="816" y="48"/>
      <point x="544" y="46" type="curve"/>
      <point x="444" y="46"/>
      <point x="290" y="100"/>
      <point x="112" y="170" type="curve"/>
      <point x="100" y="98" type="line"/>
      <point x="262" y="40"/>
      <point x="444" y="-18"/>
    </contour>
  </outline>
</glyph>
<glyph name="eight" format="2">
  <advance width="1196"/>
  <unicode hex="0038"/>
  <outline>
    <contour>
      <point x="598" y="-18" type="curve" smooth="yes"/>
      <point x="920" y="-18"/>
      <point x="1076" y="162"/>
      <point x="1076" y="382" type="curve" smooth="yes"/>
      <point x="1076" y="612"/>
      <point x="902" y="718"/>
      <point x="786" y="742" type="curve"/>
      <point x="786" y="754" type="line"/>
      <point x="904" y="788"/>
      <point x="1024" y="898"/>
      <point x="1024" y="1062" type="curve" smooth="yes"/>
      <point x="1024" y="1260"/>
      <point x="852" y="1392"/>
      <point x="598" y="1392" type="curve" smooth="yes"/>
      <point x="344" y="1392"/>
      <point x="172" y="1260"/>
      <point x="172" y="1062" type="curve" smooth="yes"/>
      <point x="172" y="898"/>
      <point x="292" y="788"/>
      <point x="408" y="754" type="curve"/>
      <point x="408" y="742" type="line"/>
      <point x="294" y="718"/>
      <point x="120" y="612"/>
      <point x="120" y="382" type="curve" smooth="yes"/>
      <point x="120" y="162"/>
      <point x="276" y="-18"/>
    </contour>
    <contour>
      <point x="598" y="46" type="curve"/>
      <point x="304" y="48"/>
      <point x="182" y="190"/>
      <point x="182" y="382" type="curve" smooth="yes"/>
      <point x="182" y="610"/>
      <point x="366" y="714"/>
      <point x="598" y="716" type="curve"/>
      <point x="830" y="714"/>
      <point x="1014" y="610"/>
      <point x="1014" y="382" type="curve" smooth="yes"/>
      <point x="1014" y="190"/>
      <point x="892" y="48"/>
    </contour>
    <contour>
      <point x="598" y="776" type="curve"/>
      <point x="364" y="778"/>
      <point x="234" y="896"/>
      <point x="234" y="1064" type="curve" smooth="yes"/>
      <point x="234" y="1234"/>
      <point x="376" y="1326"/>
      <point x="598" y="1328" type="curve"/>
      <point x="818" y="1326"/>
      <point x="962" y="1234"/>
      <point x="962" y="1064" type="curve" smooth="yes"/>
      <point x="962" y="896"/>
      <point x="830" y="778"/>
    </contour>
  </outline>
</glyph>
<glyph name="greater" format="2">
  <advance width="1120"/>
  <unicode hex="003E"/>
  <outline>
    <contour>
      <point x="140" y="172" type="line"/>
      <point x="256" y="226"/>
      <point x="372" y="280"/>
      <point x="462" y="322" type="curve"/>
      <point x="662" y="412" type="line"/>
      <point x="758" y="454"/>
      <point x="866" y="502"/>
      <point x="980" y="552" type="curve"/>
      <point x="980" y="624" type="line"/>
      <point x="866" y="672"/>
      <point x="754" y="722"/>
      <point x="662" y="764" type="curve"/>
      <point x="462" y="854" type="line"/>
      <point x="368" y="898"/>
      <point x="252" y="952"/>
      <point x="140" y="1004" type="curve"/>
      <point x="140" y="926" type="line"/>
      <point x="298" y="858"/>
      <point x="472" y="782"/>
      <point x="634" y="712" type="curve"/>
      <point x="896" y="594" type="line"/>
      <point x="896" y="582" type="line"/>
      <point x="634" y="464" type="line"/>
      <point x="472" y="394"/>
      <point x="298" y="318"/>
      <point x="140" y="250" type="curve"/>
    </contour>
  </outline>
</glyph>
<glyph name="at" format="2">
  <advance width="1750"/>
  <unicode hex="0040"/>
  <outline>
    <contour>
      <point x="940" y="-244" type="curve" smooth="yes"/>
      <point x="1068" y="-244"/>
      <point x="1322" y="-154"/>
      <point x="1504" y="-92" type="curve"/>
      <point x="1504" y="-18" type="line"/>
      <point x="1282" y="-102"/>
      <point x="1042" y="-178"/>
      <point x="940" y="-182" type="curve"/>
      <point x="366" y="-176"/>
      <point x="110" y="234"/>
      <point x="200" y="666" type="curve" smooth="yes"/>
      <point x="288" y="1086"/>
      <point x="582" y="1252"/>
      <point x="930" y="1258" type="curve"/>
      <point x="1380" y="1252"/>
      <point x="1632" y="910"/>
      <point x="1554" y="496" type="curve" smooth="yes"/>
      <point x="1538" y="412"/>
      <point x="1340" y="186"/>
      <point x="1272" y="186" type="curve"/>
      <point x="1160" y="192"/>
      <point x="1112" y="250"/>
      <point x="1138" y="380" type="curve"/>
      <point x="1204" y="698" type="line"/>
      <point x="1224" y="772"/>
      <point x="1250" y="868"/>
      <point x="1274" y="956" type="curve"/>
      <point x="1210" y="950" type="line"/>
      <point x="1180" y="836" type="line"/>
      <point x="1170" y="836" type="line"/>
      <point x="1100" y="894"/>
      <point x="976" y="968"/>
      <point x="886" y="968" type="curve" smooth="yes"/>
      <point x="698" y="968"/>
      <point x="550" y="830"/>
      <point x="502" y="600" type="curve" smooth="yes"/>
      <point x="452" y="364"/>
      <point x="544" y="146"/>
      <point x="786" y="146" type="curve" smooth="yes"/>
      <point x="854" y="146"/>
      <point x="970" y="210"/>
      <point x="1060" y="290" type="curve"/>
      <point x="1070" y="290" type="line"/>
      <point x="1084" y="208"/>
      <point x="1136" y="126"/>
      <point x="1286" y="126" type="curve" smooth="yes"/>
      <point x="1356" y="126"/>
      <point x="1590" y="356"/>
      <point x="1614" y="484" type="curve" smooth="yes"/>
      <point x="1700" y="938"/>
      <point x="1408" y="1320"/>
      <point x="932" y="1320" type="curve" smooth="yes"/>
      <point x="552" y="1320"/>
      <point x="228" y="1118"/>
      <point x="138" y="674" type="curve" smooth="yes"/>
      <point x="44" y="214"/>
      <point x="330" y="-244"/>
    </contour>
    <contour>
      <point x="794" y="206" type="curve"/>
      <point x="592" y="210"/>
      <point x="518" y="376"/>
      <point x="564" y="594" type="curve" smooth="yes"/>
      <point x="602" y="772"/>
      <point x="708" y="902"/>
      <point x="890" y="906" type="curve"/>
      <point x="966" y="904"/>
      <point x="1080" y="842"/>
      <point x="1160" y="776" type="curve"/>
      <point x="1076" y="388" type="line"/>
      <point x="982" y="280"/>
      <point x="858" y="210"/>
    </contour>
  </outline>
</glyph>
<glyph name="A" format="2">
  <advance width="1336"/>
  <unicode hex="0041"/>
  <anchor x="668" y="0" name="bottom"/>
  <anchor x="1272" y="0" name="ogonek"/>
  <anchor x="668" y="1426" name="top"/>
  <outline>
    <contour>
      <point x="62" y="0" type="curve"/>
      <point x="146" y="0" type="line"/>
      <point x="214" y="180"/>
      <point x="288" y="374"/>
      <point x="354" y="550" type="curve"/>
      <point x="666" y="1354" type="line"/>
      <point x="678" y="1354" type="line"/>
      <point x="988" y="544" type="line"/>
      <point x="1050" y="376"/>
      <point x="1122" y="178"/>
      <point x="1188" y="0" type="curve"/>
      <point x="1272" y="0" type="line"/>
      <point x="1212" y="152"/>
      <point x="1144" y="322"/>
      <point x="1080" y="482" type="curve"/>
      <point x="892" y="974" type="line"/>
      <point x="828" y="1148"/>
      <point x="778" y="1284"/>
      <point x="726" y="1426" type="curve"/>
      <point x="618" y="1426" type="line"/>
      <point x="564" y="1280"/>
      <point x="516" y="1152"/>
      <point x="450" y="974" type="curve"/>
      <point x="260" y="484" type="line"/>
      <point x="198" y="332"/>
      <point x="126" y="156"/>
    </contour>
    <contour>
      <point x="274" y="406" type="line"/>
      <point x="1064" y="406" type="line"/>
      <point x="1064" y="466" type="line"/>
      <point x="274" y="466" type="line"/>
    </contour>
  </outline>
</glyph>
<glyph name="E" format="2">
  <advance width="1182"/>
  <unicode hex="0045"/>
  <anchor x="640" y="0" name="bottom"/>
  <anchor x="1056" y="0" name="ogonek"/>
  <anchor x="640" y="1426" name="top"/>
  <anchor x="74" y="1426" name="topleft"/>
  <outline>
    <contour>
      <point x="216" y="0" type="curve"/>
      <point x="290" y="0" type="line"/>
      <point x="290" y="6" type="line"/>
      <point x="288" y="168"/>
      <point x="286" y="310"/>
      <point x="284" y="484" type="curve"/>
      <point x="284" y="944" type="line"/>
      <point x="286" y="1118"/>
      <point x="288" y="1258"/>
      <point x="290" y="1420" type="curve"/>
      <point x="290" y="1426" type="line"/>
      <point x="216" y="1426" type="line"/>
      <point x="218" y="1264"/>
      <point x="218" y="1124"/>
      <point x="220" y="950" type="curve"/>
      <point x="220" y="476" type="line"/>
      <point x="218" y="302"/>
      <point x="218" y="162"/>
    </contour>
    <contour>
      <point x="272" y="0" type="line"/>
      <point x="1056" y="0" type="line"/>
      <point x="1056" y="70" type="line"/>
      <point x="902" y="68"/>
      <point x="738" y="64"/>
      <point x="552" y="62" type="curve"/>
      <point x="272" y="62" type="line"/>
    </contour>
    <contour>
      <point x="272" y="694" type="line"/>
      <point x="560" y="694" type="line"/>
      <point x="748" y="694"/>
      <point x="874" y="692"/>
      <point x="1012" y="692" type="curve"/>
      <point x="1012" y="762" type="line"/>
      <point x="882" y="760"/>
      <point x="752" y="758"/>
      <point x="562" y="756" type="curve"/>
      <point x="272" y="756" type="line"/>
    </contour>
    <contour>
      <point x="272" y="1364" type="line"/>
      <point x="544" y="1364" type="line"/>
      <point x="764" y="1362"/>
      <point x="916" y="1358"/>
      <point x="1058" y="1356" type="curve"/>
      <point x="1058" y="1426" type="line"/>
      <point x="272" y="1426" type="line"/>
    </contour>
  </outline>
</glyph>
<glyph name="H" format="2">
  <advance width="1500"/>
  <unicode hex="0048"/>
  <anchor x="750" y="0" name="bottom"/>
  <anchor x="750" y="714" name="center"/>
  <anchor x="750" y="1426" name="top"/>
  <anchor x="72" y="1426" name="topleft"/>
  <outline>
    <contour>
      <point x="1210" y="0" type="curve"/>
      <point x="1284" y="0" type="line"/>
      <point x="1282" y="162"/>
      <point x="1280" y="302"/>
      <point x="1278" y="476" type="curve"/>
      <point x="1278" y="950" type="line"/>
      <point x="1280" y="1124"/>
      <point x="1282" y="1264"/>
      <point x="1284" y="1426" type="curve"/>
      <point x="1210" y="1426" type="line"/>
      <point x="1212" y="1264"/>
      <point x="1212" y="1124"/>
      <point x="1214" y="950" type="curve"/>
      <point x="1214" y="476" type="line"/>
      <point x="1212" y="302"/>
      <point x="1212" y="162"/>
    </contour>
    <contour>
      <point x="216" y="0" type="curve"/>
      <point x="290" y="0" type="line"/>
      <point x="288" y="162"/>
      <point x="286" y="302"/>
      <point x="284" y="476" type="curve"/>
      <point x="284" y="950" type="line"/>
      <point x="286" y="1124"/>
      <point x="288" y="1264"/>
      <point x="290" y="1426" type="curve"/>
      <point x="216" y="1426" type="line"/>
      <point x="218" y="1264"/>
      <point x="218" y="1124"/>
      <point x="220" y="950" type="curve"/>
      <point x="220" y="476" type="line"/>
      <point x="218" y="302"/>
      <point x="218" y="162"/>
    </contour>
    <contour>
      <point x="242" y="694" type="line"/>
      <point x="1262" y="694" type="line"/>
      <point x="1262" y="756" type="line"/>
      <point x="242" y="756" type="line"/>
    </contour>
  </outline>
</glyph>
<glyph name="J" format="2">
  <advance width="542"/>
  <unicode hex="004A"/>
  <anchor x="286" y="0" name="bottom"/>
  <anchor x="286" y="1426" name="top"/>
  <outline>
    <contour>
      <point x="64" y="-320" type="curve"/>
      <point x="144" y="-320" type="line"/>
      <point x="196" y="-216"/>
      <point x="322" y="38"/>
      <point x="322" y="70" type="curve" smooth="yes"/>
      <point x="322" y="224"/>
      <point x="320" y="384"/>
      <point x="320" y="538" type="curve"/>
      <point x="320" y="950" type="line"/>
      <point x="320" y="1124"/>
      <point x="320" y="1264"/>
      <point x="326" y="1426" type="curve"/>
      <point x="252" y="1426" type="line"/>
      <point x="256" y="1264"/>
      <point x="256" y="1124"/>
      <point x="256" y="950" type="curve"/>
      <point x="256" y="476" type="line"/>
      <point x="252" y="58" type="line"/>
      <point x="184" y="-80"/>
      <point x="124" y="-200"/>
    </contour>
  </outline>
</glyph>
<glyph name="L" format="2">
  <advance width="1132"/>
  <unicode hex="004C"/>
  <anchor x="638" y="0" name="bottom"/>
  <anchor x="824" y="714" name="center"/>
  <anchor x="364" y="1426" name="top"/>
  <anchor x="536" y="988" name="topright"/>
  <outline>
    <contour>
      <point x="216" y="0" type="curve"/>
      <point x="290" y="0" type="line"/>
      <point x="290" y="6" type="line"/>
      <point x="288" y="168"/>
      <point x="286" y="308"/>
      <point x="284" y="482" type="curve"/>
      <point x="284" y="950" type="line"/>
      <point x="286" y="1124"/>
      <point x="288" y="1264"/>
      <point x="290" y="1426" type="curve"/>
      <point x="216" y="1426" type="line"/>
      <point x="218" y="1264"/>
      <point x="218" y="1124"/>
      <point x="220" y="950" type="curve"/>
      <point x="220" y="476" type="line"/>
      <point x="218" y="302"/>
      <point x="218" y="162"/>
    </contour>
    <contour>
      <point x="272" y="0" type="line"/>
      <point x="1056" y="0" type="line"/>
      <point x="1056" y="70" type="line"/>
      <point x="888" y="68"/>
      <point x="746" y="66"/>
      <point x="500" y="62" type="curve"/>
      <point x="272" y="62" type="line"/>
    </contour>
  </outline>
</glyph>
<glyph name="X" format="2">
  <advance width="1318"/>
  <unicode hex="0058"/>
  <outline>
    <contour>
      <point x="84" y="0" type="curve"/>
      <point x="176" y="0" type="line"/>
      <point x="272" y="140"/>
      <point x="352" y="258"/>
      <point x="434" y="380" type="curve"/>
      <point x="634" y="670" type="line"/>
      <point x="646" y="670" type="line"/>
      <point x="860" y="382" type="line"/>
      <point x="946" y="264"/>
      <point x="1036" y="140"/>
      <point x="1138" y="0" type="curve"/>
      <point x="1234" y="0" type="line"/>
      <point x="1118" y="152"/>
      <point x="1016" y="284"/>
      <point x="898" y="438" type="curve"/>
      <point x="668" y="748" type="line"/>
      <point x="668" y="714" type="line"/>
      <point x="890" y="1030" type="line"/>
      <point x="972" y="1144"/>
      <point x="1070" y="1280"/>
      <point x="1176" y="1426" type="curve"/>
      <point x="1082" y="1426" type="line"/>
      <point x="988" y="1290"/>
      <point x="892" y="1150"/>
      <point x="808" y="1026" type="curve"/>
      <point x="642" y="788" type="line"/>
      <point x="630" y="788" type="line"/>
      <point x="460" y="1024" type="line"/>
      <point x="376" y="1144"/>
      <point x="280" y="1282"/>
      <point x="180" y="1426" type="curve"/>
      <point x="86" y="1426" type="line"/>
      <point x="204" y="1266"/>
      <point x="300" y="1134"/>
      <point x="398" y="1002" type="curve"/>
      <point x="608" y="710" type="line"/>
      <point x="608" y="744" type="line"/>
      <point x="368" y="398" type="line"/>
      <point x="266" y="256"/>
      <point x="174" y="126"/>
    </contour>
  </outline>
</glyph>
<glyph name="bracketleft" format="2">
  <advance width="690"/>
  <unicode hex="005B"/>
  <outline>
    <contour>
      <point x="218" y="-224" type="curve"/>
      <point x="290" y="-224" type="line"/>
      <point x="290" y="-218" type="line"/>
      <point x="288" y="-56"/>
      <point x="286" y="86"/>
      <point x="284" y="260" type="curve"/>
      <point x="284" y="1038" type="line"/>
      <point x="286" y="1212"/>
      <point x="288" y="1352"/>
      <point x="290" y="1514" type="curve"/>
      <point x="290" y="1520" type="line"/>
      <point x="218" y="1520" type="line"/>
      <point x="220" y="1358"/>
      <point x="220" y="1218"/>
      <point x="222" y="1044" type="curve"/>
      <point x="222" y="252" type="line"/>
      <point x="220" y="78"/>
      <point x="220" y="-62"/>
    </contour>
    <contour>
      <point x="272" y="-224" type="line"/>
      <point x="668" y="-224" type="line"/>
      <point x="668" y="-162" type="line"/>
      <point x="570" y="-162"/>
      <point x="464" y="-164"/>
      <point x="346" y="-164" type="curve"/>
      <point x="272" y="-164" type="line"/>
    </contour>
    <contour>
      <point x="272" y="1460" type="line"/>
      <point x="340" y="1460" type="line"/>
      <point x="480" y="1460"/>
      <point x="580" y="1458"/>
      <point x="670" y="1458" type="curve"/>
      <point x="670" y="1520" type="line"/>
      <point x="272" y="1520" type="line"/>
    </contour>
  </outline>
</glyph>
<glyph name="a" format="2">
  <advance width="1032"/>
  <unicode hex="0061"/>
  <anchor x="526" y="0" name="bottom"/>
  <anchor x="852" y="0" name="ogonek"/>
  <anchor x="526" y="988" name="top"/>
  <outline>
    <contour>
      <point x="432" y="-18" type="curve" smooth="yes"/>
      <point x="534" y="-18"/>
      <point x="680" y="76"/>
      <point x="792" y="166" type="curve"/>
      <point x="804" y="166" type="line"/>
      <point x="846" y="0" type="line"/>
      <point x="912" y="0" type="line"/>
      <point x="886" y="92"/>
      <point x="870" y="158"/>
      <point x="850" y="242" type="curve"/>
      <point x="850" y="422" type="line" smooth="yes"/>
      <point x="850" y="514"/>
      <point x="854" y="612"/>
      <point x="854" y="668" type="curve" smooth="yes"/>
      <point x="854" y="906"/>
      <point x="728" y="1008"/>
      <point x="530" y="1008" type="curve" smooth="yes"/>
      <point x="456" y="1008"/>
      <point x="262" y="958"/>
      <point x="174" y="934" type="curve"/>
      <point x="180" y="862" type="line"/>
      <point x="330" y="908"/>
      <point x="486" y="944"/>
      <point x="530" y="944" type="curve" smooth="yes"/>
      <point x="678" y="944"/>
      <point x="802" y="900"/>
      <point x="792" y="624" type="curve"/>
      <point x="446" y="552" type="line" smooth="yes"/>
      <point x="308" y="524"/>
      <point x="130" y="462"/>
      <point x="130" y="254" type="curve" smooth="yes"/>
      <point x="130" y="92"/>
      <point x="240" y="-18"/>
    </contour>
    <contour>
      <point x="432" y="44" type="curve" smooth="yes"/>
      <point x="292" y="44"/>
      <point x="192" y="104"/>
      <point x="192" y="256" type="curve" smooth="yes"/>
      <point x="192" y="410"/>
      <point x="320" y="468"/>
      <point x="470" y="496" type="curve" smooth="yes"/>
      <point x="696" y="538"/>
      <point x="754" y="560"/>
      <point x="792" y="578" type="curve"/>
      <point x="790" y="246" type="line"/>
      <point x="666" y="128"/>
      <point x="516" y="44"/>
    </contour>
  </outline>
</glyph>
<glyph name="n" format="2">
  <advance width="1148"/>
  <unicode hex="006E"/>
  <anchor x="588" y="0" name="bottom"/>
  <anchor x="588" y="988" name="top"/>
  <outline>
    <contour>
      <point x="216" y="0" type="curve"/>
      <point x="286" y="0" type="line"/>
      <point x="284" y="150"/>
      <point x="282" y="280"/>
      <point x="280" y="442" type="curve"/>
      <point x="280" y="702" type="line"/>
      <point x="416" y="842"/>
      <point x="576" y="944"/>
      <point x="662" y="944" type="curve" smooth="yes"/>
      <point x="848" y="944"/>
      <point x="908" y="844"/>
      <point x="908" y="652" type="curve"/>
      <point x="908" y="442" type="line"/>
      <point x="906" y="280"/>
      <point x="906" y="150"/>
      <point x="904" y="0" type="curve"/>
      <point x="974" y="0" type="line"/>
      <point x="972" y="150"/>
      <point x="970" y="280"/>
      <point x="968" y="442" type="curve"/>
      <point x="968" y="494"/>
      <point x="970" y="566"/>
      <point x="970" y="652" type="curve" smooth="yes"/>
      <point x="970" y="880"/>
      <point x="886" y="1008"/>
      <point x="664" y="1008" type="curve" smooth="yes"/>
      <point x="544" y="1008"/>
      <point x="374" y="874"/>
      <point x="292" y="798" type="curve"/>
      <point x="280" y="798" type="line"/>
      <point x="268" y="994" type="line"/>
      <point x="202" y="988" type="line"/>
      <point x="208" y="886"/>
      <point x="216" y="780"/>
      <point x="220" y="684" type="curve"/>
      <point x="220" y="442" type="line"/>
      <point x="218" y="280"/>
      <point x="218" y="150"/>
    </contour>
  </outline>
</glyph>
<glyph name="p" format="2">
  <advance width="1192"/>
  <unicode hex="0070"/>
  <outline>
    <contour>
      <point x="214" y="-388" type="curve"/>
      <point x="286" y="-384" type="line"/>
      <point x="284" y="-234"/>
      <point x="282" y="-104"/>
      <point x="280" y="58" type="curve"/>
      <point x="280" y="142" type="line"/>
      <point x="292" y="142" type="line"/>
      <point x="392" y="58"/>
      <point x="530" y="-18"/>
      <point x="626" y="-18" type="curve" smooth="yes"/>
      <point x="918" y="-18"/>
      <point x="1068" y="220"/>
      <point x="1068" y="498" type="curve" smooth="yes"/>
      <point x="1068" y="792"/>
      <point x="900" y="1008"/>
      <point x="622" y="1008" type="curve" smooth="yes"/>
      <point x="502" y="1008"/>
      <point x="382" y="926"/>
      <point x="288" y="856" type="curve"/>
      <point x="276" y="856" type="line"/>
      <point x="268" y="994" type="line"/>
      <point x="202" y="988" type="line"/>
      <point x="208" y="886"/>
      <point x="216" y="780"/>
      <point x="220" y="684" type="curve"/>
      <point x="220" y="58" type="line"/>
      <point x="218" y="-104"/>
      <point x="216" y="-238"/>
    </contour>
    <contour>
      <point x="626" y="46" type="curve"/>
      <point x="516" y="50"/>
      <point x="378" y="138"/>
      <point x="280" y="232" type="curve"/>
      <point x="280" y="768" type="line"/>
      <point x="398" y="882"/>
      <point x="536" y="942"/>
      <point x="622" y="944" type="curve"/>
      <point x="884" y="938"/>
      <point x="1006" y="744"/>
      <point x="1006" y="498" type="curve" smooth="yes"/>
      <point x="1006" y="262"/>
      <point x="894" y="52"/>
    </contour>
  </outline>
</glyph>
<glyph name="u" format="2">
  <advance width="1098"/>
  <unicode hex="0075"/>
  <anchor x="550" y="0" name="bottom"/>
  <anchor x="924" y="0" name="ogonek"/>
  <anchor x="550" y="988" name="top"/>
  <anchor x="1036" y="988" name="topright"/>
  <outline>
    <contour>
      <point x="484" y="-18" type="curve" smooth="yes"/>
      <point x="594" y="-18"/>
      <point x="764" y="116"/>
      <point x="846" y="192" type="curve"/>
      <point x="858" y="192" type="line"/>
      <point x="864" y="0" type="line"/>
      <point x="924" y="0" type="line"/>
      <point x="922" y="150"/>
      <point x="920" y="280"/>
      <point x="918" y="442" type="curve"/>
      <point x="918" y="542" type="line"/>
      <point x="920" y="706"/>
      <point x="922" y="836"/>
      <point x="924" y="988" type="curve"/>
      <point x="852" y="988" type="line"/>
      <point x="854" y="838"/>
      <point x="856" y="706"/>
      <point x="858" y="542" type="curve"/>
      <point x="858" y="288" type="line"/>
      <point x="722" y="148"/>
      <point x="562" y="46"/>
      <point x="486" y="46" type="curve" smooth="yes"/>
      <point x="300" y="46"/>
      <point x="240" y="146"/>
      <point x="240" y="338" type="curve"/>
      <point x="240" y="542" type="line"/>
      <point x="242" y="708"/>
      <point x="244" y="840"/>
      <point x="246" y="992" type="curve"/>
      <point x="174" y="988" type="line"/>
      <point x="176" y="838"/>
      <point x="178" y="706"/>
      <point x="180" y="542" type="curve"/>
      <point x="180" y="484"/>
      <point x="178" y="424"/>
      <point x="178" y="338" type="curve" smooth="yes"/>
      <point x="178" y="110"/>
      <point x="262" y="-18"/>
    </contour>
  </outline>
</glyph>
<glyph name="z" format="2">
  <advance width="964"/>
  <unicode hex="007A"/>
  <anchor x="478" y="0" name="bottom"/>
  <anchor x="478" y="494" name="center"/>
  <anchor x="478" y="988" name="top"/>
  <outline>
    <contour>
      <point x="88" y="0" type="line"/>
      <point x="884" y="0" type="line"/>
      <point x="884" y="62" type="line"/>
      <point x="736" y="60"/>
      <point x="536" y="58"/>
      <point x="416" y="56" type="curve"/>
      <point x="150" y="56" type="line"/>
      <point x="160" y="38" type="line"/>
      <point x="520" y="510" type="line"/>
      <point x="630" y="652"/>
      <point x="764" y="826"/>
      <point x="850" y="938" type="curve"/>
      <point x="850" y="988" type="line"/>
      <point x="88" y="988" type="line"/>
      <point x="88" y="926" type="line"/>
      <point x="246" y="928"/>
      <point x="450" y="930"/>
      <point x="568" y="932" type="curve"/>
      <point x="808" y="932" type="line"/>
      <point x="794" y="968" type="line"/>
      <point x="436" y="498" type="line"/>
      <point x="332" y="364"/>
      <point x="212" y="208"/>
      <point x="88" y="46" type="curve"/>
    </contour>
  </outline>
</glyph>
<glyph name="asciitilde" format="2">
  <advance width="1120"/>
  <unicode hex="007E"/>
  <outline>
    <contour>
      <point x="782" y="466" type="curve" smooth="yes"/>
      <point x="892" y="466"/>
      <point x="980" y="544"/>
      <point x="980" y="688" type="curve"/>
      <point x="922" y="688" type="line"/>
      <point x="916" y="576"/>
      <point x="862" y="532"/>
      <point x="778" y="528" type="curve"/>
      <point x="636" y="532"/>
      <point x="500" y="714"/>
      <point x="340" y="714" type="curve" smooth="yes"/>
      <point x="230" y="714"/>
      <point x="140" y="636"/>
      <point x="140" y="492" type="curve"/>
      <point x="198" y="492" type="line"/>
      <point x="204" y="604"/>
      <point x="260" y="648"/>
      <point x="344" y="652" type="curve"/>
      <point x="486" y="648"/>
      <point x="622" y="466"/>
    </contour>
  </outline>
</glyph>
<glyph name="cent" format="2">
  <advance width="1004"/>
  <unicode hex="00A2"/>
  <anchor x="580" y="0" name="bottom"/>
  <anchor x="562" y="988" name="top"/>
  <outline>
    <contour>
      <point x="522" y="-274" type="curve"/>
      <point x="588" y="-274" type="line"/>
      <point x="586" y="2"/>
      <point x="584" y="308"/>
      <point x="584" y="384" type="curve"/>
      <point x="584" y="588" type="line"/>
      <point x="584" y="664"/>
      <point x="586" y="970"/>
      <point x="588" y="1246" type="curve"/>
      <point x="522" y="1246" type="line"/>
      <point x="524" y="970"/>
      <point x="526" y="664"/>
      <point x="526" y="588" type="curve"/>
      <point x="526" y="384" type="line"/>
      <point x="526" y="308"/>
      <point x="524" y="2"/>
    </contour>
    <contour>
      <point x="608" y="-18" type="curve" smooth="yes"/>
      <point x="674" y="-18"/>
      <point x="812" y="22"/>
      <point x="898" y="54" type="curve"/>
      <point x="884" y="126" type="line"/>
      <point x="784" y="80"/>
      <point x="652" y="46"/>
      <point x="608" y="46" type="curve"/>
      <point x="324" y="52"/>
      <point x="186" y="244"/>
      <point x="186" y="496" type="curve" smooth="yes"/>
      <point x="186" y="770"/>
      <point x="346" y="938"/>
      <point x="592" y="944" type="curve"/>
      <point x="628" y="944"/>
      <point x="758" y="908"/>
      <point x="882" y="862" type="curve"/>
      <point x="892" y="934" type="line"/>
      <point x="816" y="958"/>
      <point x="652" y="1008"/>
      <point x="590" y="1008" type="curve" smooth="yes"/>
      <point x="300" y="1008"/>
      <point x="124" y="786"/>
      <point x="124" y="496" type="curve" smooth="yes"/>
      <point x="124" y="208"/>
      <point x="298" y="-18"/>
    </contour>
  </outline>
</glyph>
<glyph name="currency" format="2">
  <advance width="1200"/>
  <unicode hex="00A4"/>
  <outline>
    <contour>
      <point x="596" y="260" type="curve" smooth="yes"/>
      <point x="812" y="260"/>
      <point x="974" y="408"/>
      <point x="974" y="640" type="curve" smooth="yes"/>
      <point x="974" y="866"/>
      <point x="814" y="1022"/>
      <point x="600" y="1022" type="curve" smooth="yes"/>
      <point x="382" y="1022"/>
      <point x="222" y="864"/>
      <point x="222" y="640" type="curve" smooth="yes"/>
      <point x="222" y="408"/>
      <point x="382" y="260"/>
    </contour>
    <contour>
      <point x="158" y="152" type="line"/>
      <point x="238" y="234"/>
      <point x="332" y="330"/>
      <point x="380" y="380" type="curve"/>
      <point x="338" y="422" type="line"/>
      <point x="288" y="374"/>
      <point x="192" y="280"/>
      <point x="110" y="200" type="curve"/>
    </contour>
    <contour>
      <point x="596" y="324" type="curve"/>
      <point x="424" y="328"/>
      <point x="286" y="424"/>
      <point x="286" y="640" type="curve" smooth="yes"/>
      <point x="286" y="844"/>
      <point x="426" y="954"/>
      <point x="600" y="958" type="curve"/>
      <point x="772" y="954"/>
      <point x="910" y="844"/>
      <point x="910" y="640" type="curve" smooth="yes"/>
      <point x="910" y="424"/>
      <point x="772" y="328"/>
    </contour>
    <contour>
      <point x="338" y="862" type="curve"/>
      <point x="380" y="904" type="line"/>
      <point x="332" y="954"/>
      <point x="238" y="1050"/>
      <point x="158" y="1132" type="curve"/>
      <point x="110" y="1084" type="line"/>
      <point x="192" y="1004"/>
      <point x="288" y="910"/>
    </contour>
    <contour>
      <point x="1042" y="152" type="curve"/>
      <point x="1090" y="200" type="line"/>
      <point x="1008" y="280"/>
      <point x="912" y="374"/>
      <point x="862" y="422" type="curve"/>
      <point x="820" y="380" type="line"/>
      <point x="868" y="330"/>
      <point x="962" y="234"/>
    </contour>
    <contour>
      <point x="862" y="862" type="line"/>
      <point x="912" y="910"/>
      <point x="1008" y="1004"/>
      <point x="1090" y="1084" type="curve"/>
      <point x="1042" y="1132" type="line"/>
      <point x="962" y="1050"/>
      <point x="868" y="954"/>
      <point x="820" y="904" type="curve"/>
    </contour>
  </outline>
</glyph>
<glyph name="copyright" format="2">
  <advance width="1658"/>
  <unicode hex="00A9"/>
  <outline>
    <contour>
      <point x="836" y="-18" type="curve" smooth="yes"/>
      <point x="1266" y="-18"/>
      <point x="1538" y="284"/>
      <point x="1538" y="688" type="curve" smooth="yes"/>
      <point x="1538" y="1080"/>
      <point x="1278" y="1392"/>
      <point x="832" y="1392" type="curve" smooth="yes"/>
      <point x="394" y="1392"/>
      <point x="120" y="1086"/>
      <point x="120" y="688" type="curve" smooth="yes"/>
      <point x="120" y="302"/>
      <point x="370" y="-18"/>
    </contour>
    <contour>
      <point x="850" y="312" type="curve" smooth="yes"/>
      <point x="936" y="312"/>
      <point x="1012" y="344"/>
      <point x="1064" y="364" type="curve"/>
      <point x="1052" y="434" type="line"/>
      <point x="980" y="396"/>
      <point x="912" y="374"/>
      <point x="850" y="374" type="curve"/>
      <point x="658" y="378"/>
      <point x="556" y="498"/>
      <point x="556" y="690" type="curve" smooth="yes"/>
      <point x="556" y="896"/>
      <point x="674" y="1000"/>
      <point x="838" y="1004" type="curve"/>
      <point x="876" y="1004"/>
      <point x="958" y="986"/>
      <point x="1052" y="940" type="curve"/>
      <point x="1060" y="1010" type="line"/>
      <point x="1004" y="1032"/>
      <point x="912" y="1066"/>
      <point x="838" y="1066" type="curve" smooth="yes"/>
      <point x="624" y="1066"/>
      <point x="494" y="902"/>
      <point x="494" y="690" type="curve" smooth="yes"/>
      <point x="494" y="478"/>
      <point x="622" y="312"/>
    </contour>
    <contour>
      <point x="836" y="46" type="curve"/>
      <point x="440" y="54"/>
      <point x="184" y="284"/>
      <point x="184" y="688" type="curve" smooth="yes"/>
      <point x="184" y="1082"/>
      <point x="448" y="1320"/>
      <point x="832" y="1328" type="curve"/>
      <point x="1218" y="1320"/>
      <point x="1474" y="1086"/>
      <point x="1474" y="688" type="curve" smooth="yes"/>
      <point x="1474" y="288"/>
      <point x="1216" y="54"/>
    </contour>
  </outline>
</glyph>
<glyph name="paragraph" format="2">
  <advance width="1044"/>
  <unicode hex="00B6"/>
  <outline>
    <contour>
      <point x="450" y="626" type="curve" smooth="yes"/>
      <point x="490" y="626" type="line"/>
      <point x="490" y="1426" type="line"/>
      <point x="450" y="1426" type="line"/>
      <point x="232" y="1426"/>
      <point x="80" y="1262"/>
      <point x="80" y="1032" type="curve" smooth="yes"/>
      <point x="80" y="816"/>
      <point x="218" y="626"/>
    </contour>
    <contour>
      <point x="446" y="-454" type="curve"/>
      <point x="514" y="-454" type="line"/>
      <point x="512" y="-178"/>
      <point x="510" y="128"/>
      <point x="510" y="204" type="curve"/>
      <point x="510" y="768" type="line"/>
      <point x="510" y="844"/>
      <point x="512" y="1150"/>
      <point x="514" y="1426" type="curve"/>
      <point x="450" y="1426" type="line"/>
      <point x="450" y="1150"/>
      <point x="450" y="844"/>
      <point x="450" y="768" type="curve"/>
      <point x="450" y="204" type="line"/>
      <point x="450" y="128"/>
      <point x="448" y="-178"/>
    </contour>
    <contour>
      <point x="706" y="-454" type="curve"/>
      <point x="774" y="-454" type="line"/>
      <point x="772" y="-178"/>
      <point x="770" y="128"/>
      <point x="770" y="204" type="curve"/>
      <point x="770" y="768" type="line"/>
      <point x="770" y="844"/>
      <point x="772" y="1150"/>
      <point x="774" y="1426" type="curve"/>
      <point x="706" y="1426" type="line"/>
      <point x="708" y="1150"/>
      <point x="710" y="844"/>
      <point x="710" y="768" type="curve"/>
      <point x="710" y="204" type="line"/>
      <point x="710" y="128"/>
      <point x="708" y="-178"/>
    </contour>
    <contour>
      <point x="464" y="1366" type="line"/>
      <point x="664" y="1366" type="line"/>
      <point x="734" y="1366"/>
      <point x="868" y="1364"/>
      <point x="984" y="1362" type="curve"/>
      <point x="984" y="1426" type="line"/>
      <point x="868" y="1426"/>
      <point x="734" y="1426"/>
      <point x="664" y="1426" type="curve"/>
      <point x="464" y="1426" type="line"/>
    </contour>
  </outline>
</glyph>
<glyph name="AE" format="2">
  <advance width="1912"/>
  <unicode hex="00C6"/>
  <anchor x="982" y="0" name="bottom"/>
  <anchor x="982" y="1426" name="top"/>
  <outline>
    <contour>
      <point x="32" y="0" type="curve"/>
      <point x="122" y="0" type="line"/>
      <point x="226" y="180"/>
      <point x="342" y="380"/>
      <point x="442" y="552" type="curve"/>
      <point x="922" y="1364" type="line"/>
      <point x="952" y="1364" type="line"/>
      <point x="1006" y="1364" type="line"/>
      <point x="1006" y="1426" type="line"/>
      <point x="878" y="1426" type="line"/>
      <point x="796" y="1284"/>
      <point x="714" y="1140"/>
      <point x="622" y="980" type="curve"/>
      <point x="328" y="484" type="line"/>
      <point x="234" y="330"/>
      <point x="126" y="154"/>
    </contour>
    <contour>
      <point x="326" y="406" type="line"/>
      <point x="984" y="406" type="line"/>
      <point x="984" y="466" type="line"/>
      <point x="326" y="466" type="line"/>
    </contour>
    <contour>
      <point x="946" y="0" type="curve"/>
      <point x="1020" y="0" type="line"/>
      <point x="1020" y="6" type="line"/>
      <point x="1018" y="168"/>
      <point x="1016" y="310"/>
      <point x="1014" y="484" type="curve"/>
      <point x="1014" y="944" type="line"/>
      <point x="1016" y="1118"/>
      <point x="1018" y="1258"/>
      <point x="1020" y="1420" type="curve"/>
      <point x="1020" y="1426" type="line"/>
      <point x="946" y="1426" type="line"/>
      <point x="948" y="1264"/>
      <point x="948" y="1124"/>
      <point x="950" y="950" type="curve"/>
      <point x="950" y="476" type="line"/>
      <point x="948" y="302"/>
      <point x="948" y="162"/>
    </contour>
    <contour>
      <point x="1002" y="0" type="line"/>
      <point x="1786" y="0" type="line"/>
      <point x="1786" y="70" type="line"/>
      <point x="1646" y="68"/>
      <point x="1408" y="64"/>
      <point x="1282" y="62" type="curve"/>
      <point x="1002" y="62" type="line"/>
    </contour>
    <contour>
      <point x="1002" y="694" type="line"/>
      <point x="1290" y="694" type="line"/>
      <point x="1398" y="694"/>
      <point x="1664" y="692"/>
      <point x="1742" y="692" type="curve"/>
      <point x="1742" y="762" type="line"/>
      <point x="1612" y="760"/>
      <point x="1462" y="758"/>
      <point x="1292" y="756" type="curve"/>
      <point x="1002" y="756" type="line"/>
    </contour>
    <contour>
      <point x="1002" y="1364" type="line"/>
      <point x="1274" y="1364" type="line"/>
      <point x="1414" y="1362"/>
      <point x="1646" y="1358"/>
      <point x="1788" y="1356" type="curve"/>
      <point x="1788" y="1426" type="line"/>
      <point x="1002" y="1426" type="line"/>
    </contour>
  </outline>
</glyph>
<glyph name="Lslash" format="2">
  <advance width="1132"/>
  <unicode hex="0141"/>
  <outline>
    <contour>
      <point x="216" y="0" type="curve"/>
      <point x="290" y="0" type="line"/>
      <point x="290" y="6" type="line"/>
      <point x="288" y="168"/>
      <point x="286" y="308"/>
      <point x="284" y="482" type="curve"/>
      <point x="284" y="950" type="line"/>
      <point x="286" y="1124"/>
      <point x="288" y="1264"/>
      <point x="290" y="1426" type="curve"/>
      <point x="216" y="1426" type="line"/>
      <point x="218" y="1264"/>
      <point x="218" y="1124"/>
      <point x="220" y="950" type="curve"/>
      <point x="220" y="476" type="line"/>
      <point x="218" y="302"/>
      <point x="218" y="162"/>
    </contour>
    <contour>
      <point x="0" y="586" type="line"/>
      <point x="124" y="624"/>
      <point x="238" y="660"/>
      <point x="336" y="690" type="curve"/>
      <point x="430" y="718" type="line"/>
      <point x="530" y="746"/>
      <point x="640" y="778"/>
      <point x="768" y="814" type="curve"/>
      <point x="748" y="880" type="line"/>
      <point x="626" y="842"/>
      <point x="516" y="808"/>
      <point x="412" y="776" type="curve"/>
      <point x="320" y="748" type="line"/>
      <point x="220" y="720"/>
      <point x="106" y="688"/>
      <point x="-20" y="652" type="curve"/>
    </contour>
    <contour>
      <point x="272" y="0" type="line"/>
      <point x="1056" y="0" type="line"/>
      <point x="1056" y="70" type="line"/>
      <point x="888" y="68"/>
      <point x="746" y="66"/>
      <point x="500" y="62" type="curve"/>
      <point x="272" y="62" type="line"/>
    </contour>
  </outline>
</glyph>
<glyph name="lslash" format="2">
  <advance width="516"/>
  <unicode hex="0142"/>
  <outline>
    <contour>
      <point x="-4" y="572" type="line"/>
      <point x="86" y="600"/>
      <point x="158" y="622"/>
      <point x="234" y="646" type="curve"/>
      <point x="294" y="664" type="line"/>
      <point x="362" y="682"/>
      <point x="446" y="706"/>
      <point x="534" y="730" type="curve"/>
      <point x="516" y="792" type="line"/>
      <point x="428" y="764"/>
      <point x="354" y="742"/>
      <point x="278" y="718" type="curve"/>
      <point x="218" y="700" type="line"/>
      <point x="144" y="680"/>
      <point x="66" y="658"/>
      <point x="-22" y="634" type="curve"/>
    </contour>
    <contour>
      <point x="224" y="0" type="curve"/>
      <point x="294" y="0" type="line"/>
      <point x="292" y="150"/>
      <point x="290" y="280"/>
      <point x="288" y="442" type="curve"/>
      <point x="288" y="988" type="line"/>
      <point x="290" y="1158"/>
      <point x="292" y="1316"/>
      <point x="294" y="1480" type="curve"/>
      <point x="216" y="1458" type="line"/>
      <point x="220" y="1314"/>
      <point x="224" y="1158"/>
      <point x="228" y="988" type="curve"/>
      <point x="228" y="442" type="line"/>
      <point x="226" y="280"/>
      <point x="226" y="150"/>
    </contour>
  </outline>
</glyph>
<glyph name="OE" format="2">
  <advance width="2194"/>
  <unicode hex="0152"/>
  <anchor x="1098" y="0" name="bottom"/>
  <anchor x="1098" y="1426" name="top"/>
  <outline>
    <contour>
      <point x="1228" y="0" type="curve"/>
      <point x="1302" y="0" type="line"/>
      <point x="1302" y="6" type="line"/>
      <point x="1300" y="168"/>
      <point x="1298" y="310"/>
      <point x="1296" y="484" type="curve"/>
      <point x="1296" y="944" type="line"/>
      <point x="1298" y="1118"/>
      <point x="1300" y="1258"/>
      <point x="1302" y="1420" type="curve"/>
      <point x="1302" y="1426" type="line"/>
      <point x="1228" y="1426" type="line"/>
      <point x="1230" y="1264"/>
      <point x="1230" y="1124"/>
      <point x="1232" y="950" type="curve"/>
      <point x="1232" y="476" type="line"/>
      <point x="1230" y="302"/>
      <point x="1230" y="162"/>
    </contour>
    <contour>
      <point x="1284" y="0" type="line"/>
      <point x="2068" y="0" type="line"/>
      <point x="2068" y="70" type="line"/>
      <point x="1914" y="68"/>
      <point x="1750" y="64"/>
      <point x="1564" y="62" type="curve"/>
      <point x="1284" y="62" type="line"/>
    </contour>
    <contour>
      <point x="1284" y="694" type="line"/>
      <point x="1572" y="694" type="line"/>
      <point x="1760" y="694"/>
      <point x="1886" y="692"/>
      <point x="2024" y="692" type="curve"/>
      <point x="2024" y="762" type="line"/>
      <point x="1894" y="760"/>
      <point x="1764" y="758"/>
      <point x="1574" y="756" type="curve"/>
      <point x="1284" y="756" type="line"/>
    </contour>
    <contour>
      <point x="1284" y="1364" type="line"/>
      <point x="1556" y="1364" type="line"/>
      <point x="1776" y="1362"/>
      <point x="1928" y="1358"/>
      <point x="2070" y="1356" type="curve"/>
      <point x="2070" y="1426" type="line"/>
      <point x="1284" y="1426" type="line"/>
    </contour>
    <contour>
      <point x="834" y="-18" type="curve" smooth="yes"/>
      <point x="982" y="-18"/>
      <point x="1134" y="14"/>
      <point x="1250" y="92" type="curve"/>
      <point x="1238" y="164" type="line"/>
      <point x="1118" y="82"/>
      <point x="978" y="52"/>
      <point x="830" y="48" type="curve"/>
      <point x="406" y="54"/>
      <point x="186" y="346"/>
      <point x="186" y="716" type="curve" smooth="yes"/>
      <point x="186" y="1120"/>
      <point x="442" y="1376"/>
      <point x="804" y="1384" type="curve"/>
      <point x="948" y="1380"/>
      <point x="1094" y="1346"/>
      <point x="1250" y="1258" type="curve"/>
      <point x="1260" y="1328" type="line"/>
      <point x="1168" y="1382"/>
      <point x="1004" y="1450"/>
      <point x="806" y="1450" type="curve" smooth="yes"/>
      <point x="404" y="1450"/>
      <point x="120" y="1152"/>
      <point x="120" y="718" type="curve" smooth="yes"/>
      <point x="120" y="306"/>
      <point x="380" y="-18"/>
    </contour>
  </outline>
</glyph>
<glyph name="florin" format="2">
  <advance width="1030"/>
  <unicode hex="0192"/>
  <outline>
    <contour>
      <point x="150" y="-238" type="curve" smooth="yes"/>
      <point x="314" y="-238"/>
      <point x="434" y="-148"/>
      <point x="456" y="108" type="curve" smooth="yes"/>
      <point x="474" y="306"/>
      <point x="488" y="504"/>
      <point x="506" y="702" type="curve"/>
      <point x="508" y="730" type="line"/>
      <point x="516" y="834"/>
      <point x="526" y="940"/>
      <point x="534" y="1044" type="curve" smooth="yes"/>
      <point x="550" y="1230"/>
      <point x="638" y="1328"/>
      <point x="832" y="1328" type="curve" smooth="yes"/>
      <point x="844" y="1328"/>
      <point x="914" y="1318"/>
      <point x="976" y="1306" type="curve"/>
      <point x="990" y="1376" type="line"/>
      <point x="950" y="1382"/>
      <point x="864" y="1392"/>
      <point x="838" y="1392" type="curve" smooth="yes"/>
      <point x="652" y="1392"/>
      <point x="494" y="1302"/>
      <point x="472" y="1046" type="curve" smooth="yes"/>
      <point x="446" y="734"/>
      <point x="420" y="424"/>
      <point x="394" y="112" type="curve" smooth="yes"/>
      <point x="378" y="-78"/>
      <point x="310" y="-174"/>
      <point x="156" y="-174" type="curve" smooth="yes"/>
      <point x="144" y="-174"/>
      <point x="74" y="-164"/>
      <point x="12" y="-152" type="curve"/>
      <point x="-2" y="-222" type="line"/>
      <point x="38" y="-228"/>
      <point x="124" y="-238"/>
    </contour>
    <contour>
      <point x="140" y="676" type="line"/>
      <point x="256" y="678"/>
      <point x="390" y="680"/>
      <point x="460" y="680" type="curve"/>
      <point x="640" y="680" type="line"/>
      <point x="710" y="680"/>
      <point x="844" y="678"/>
      <point x="960" y="676" type="curve"/>
      <point x="960" y="740" type="line"/>
      <point x="844" y="738"/>
      <point x="710" y="736"/>
      <point x="640" y="736" type="curve"/>
      <point x="460" y="736" type="line"/>
      <point x="390" y="736"/>
      <point x="256" y="738"/>
      <point x="140" y="740" type="curve"/>
    </contour>
  </outline>
</glyph>
<glyph name="jdotless" format="2">
  <advance width="476"/>
  <unicode hex="0237"/>
  <anchor x="240" y="-384" name="bottom"/>
  <anchor x="238" y="988" name="top"/>
  <outline>
    <contour>
      <point x="38" y="-388" type="curve"/>
      <point x="120" y="-384" type="line"/>
      <point x="158" y="-296"/>
      <point x="270" y="-8"/>
      <point x="270" y="26" type="curve" smooth="yes"/>
      <point x="270" y="148"/>
      <point x="268" y="274"/>
      <point x="268" y="542" type="curve"/>
      <point x="270" y="704"/>
      <point x="272" y="838"/>
      <point x="274" y="988" type="curve"/>
      <point x="202" y="988" type="line"/>
      <point x="204" y="838"/>
      <point x="206" y="704"/>
      <point x="208" y="542" type="curve"/>
      <point x="208" y="442" type="line"/>
      <point x="202" y="4" type="line"/>
      <point x="134" y="-166"/>
      <point x="92" y="-266"/>
    </contour>
  </outline>
</glyph>
<glyph name="circumflexcomb" format="2">
  <unicode hex="0302"/>
  <anchor x="600" y="988" name="_top"/>
  <anchor x="598" y="1490" name="top"/>
  <outline>
    <contour>
      <point x="862" y="1170" type="curve"/>
      <point x="928" y="1172" type="line"/>
      <point x="832" y="1300"/>
      <point x="738" y="1430"/>
      <point x="644" y="1554" type="curve"/>
      <point x="556" y="1554" type="line"/>
      <point x="656" y="1426"/>
      <point x="756" y="1300"/>
    </contour>
    <contour>
      <point x="266" y="1174" type="curve"/>
      <point x="332" y="1174" type="line"/>
      <point x="438" y="1302"/>
      <point x="538" y="1428"/>
      <point x="638" y="1554" type="curve"/>
      <point x="550" y="1554" type="line"/>
      <point x="456" y="1428"/>
      <point x="362" y="1302"/>
    </contour>
  </outline>
</glyph>
<glyph name="dotaccentcomb" format="2">
  <unicode hex="0307"/>
  <anchor x="198" y="988" name="_top"/>
  <anchor x="196" y="1370" name="top"/>
  <outline>
    <contour>
      <point x="194" y="1276" type="curve" smooth="yes"/>
      <point x="248" y="1276"/>
      <point x="270" y="1308"/>
      <point x="270" y="1374" type="curve" smooth="yes"/>
      <point x="270" y="1430"/>
      <point x="248" y="1450"/>
      <point x="196" y="1450" type="curve" smooth="yes"/>
      <point x="142" y="1450"/>
      <point x="120" y="1432"/>
      <point x="120" y="1380" type="curve" smooth="yes"/>
      <point x="120" y="1308"/>
      <point x="142" y="1276"/>
    </contour>
  </outline>
</glyph>
<glyph name="hookabovecomb" format="2">
  <unicode hex="0309"/>
  <anchor x="600" y="988" name="_top"/>
  <anchor x="598" y="1466" name="top"/>
  <outline>
    <contour>
      <point x="558" y="1172" type="line"/>
      <point x="618" y="1172" type="line"/>
      <point x="618" y="1242" type="line"/>
      <point x="690" y="1272"/>
      <point x="794" y="1326"/>
      <point x="794" y="1438" type="curve" smooth="yes"/>
      <point x="794" y="1542"/>
      <point x="700" y="1592"/>
      <point x="606" y="1592" type="curve" smooth="yes"/>
      <point x="576" y="1592"/>
      <point x="472" y="1562"/>
      <point x="422" y="1546" type="curve"/>
      <point x="428" y="1478" type="line"/>
      <point x="500" y="1504"/>
      <point x="582" y="1530"/>
      <point x="604" y="1530" type="curve"/>
      <point x="672" y="1528"/>
      <point x="732" y="1506"/>
      <point x="732" y="1438" type="curve" smooth="yes"/>
      <point x="732" y="1364"/>
      <point x="658" y="1312"/>
      <point x="558" y="1278" type="curve"/>
    </contour>
  </outline>
</glyph>
<glyph name="dblgravecomb" format="2">
  <unicode hex="030F"/>
  <anchor x="600" y="988" name="_top"/>
  <anchor x="598" y="1472" name="top"/>
  <outline>
    <contour>
      <point x="444" y="1172" type="curve"/>
      <point x="510" y="1174" type="line"/>
      <point x="414" y="1302"/>
      <point x="320" y="1432"/>
      <point x="226" y="1558" type="curve"/>
      <point x="134" y="1556" type="line"/>
      <point x="234" y="1426"/>
      <point x="338" y="1300"/>
    </contour>
    <contour>
      <point x="778" y="1172" type="curve"/>
      <point x="838" y="1174" type="line"/>
      <point x="754" y="1302"/>
      <point x="674" y="1430"/>
      <point x="594" y="1558" type="curve"/>
      <point x="508" y="1556" type="line"/>
      <point x="594" y="1426"/>
      <point x="684" y="1300"/>
    </contour>
  </outline>
</glyph>
<glyph name="macronbelowcomb" format="2">
  <unicode hex="0331"/>
  <anchor x="600" y="0" name="_bottom"/>
  <anchor x="600" y="0" name="bottom"/>
  <outline>
    <contour>
      <point x="308" y="-336" type="line"/>
      <point x="396" y="-336"/>
      <point x="494" y="-334"/>
      <point x="600" y="-334" type="curve"/>
      <point x="706" y="-334"/>
      <point x="804" y="-336"/>
      <point x="892" y="-336" type="curve"/>
      <point x="892" y="-276" type="line"/>
      <point x="804" y="-276"/>
      <point x="706" y="-278"/>
      <point x="600" y="-278" type="curve"/>
      <point x="494" y="-278"/>
      <point x="396" y="-276"/>
      <point x="308" y="-276" type="curve"/>
    </contour>
  </outline>
</glyph>
<glyph name="emdash" format="2">
  <advance width="1560"/>
  <unicode hex="2014"/>
  <outline>
    <contour>
      <point x="140" y="558" type="line"/>
      <point x="312" y="560"/>
      <point x="512" y="562"/>
      <point x="616" y="562" type="curve"/>
      <point x="944" y="562" type="line"/>
      <point x="1048" y="562"/>
      <point x="1248" y="560"/>
      <point x="1420" y="558" type="curve"/>
      <point x="1420" y="622" type="line"/>
      <point x="1248" y="620"/>
      <point x="1048" y="618"/>
      <point x="944" y="618" type="curve"/>
      <point x="616" y="618" type="line"/>
      <point x="512" y="618"/>
      <point x="312" y="620"/>
      <point x="140" y="622" type="curve"/>
    </contour>
  </outline>
</glyph>
<glyph name="daggerdbl" format="2">
  <advance width="1120"/>
  <unicode hex="2021"/>
  <outline>
    <contour>
      <point x="524" y="0" type="curve"/>
      <point x="596" y="0" type="line"/>
      <point x="594" y="156"/>
      <point x="592" y="292"/>
      <point x="590" y="462" type="curve"/>
      <point x="590" y="894" type="line"/>
      <point x="592" y="1064"/>
      <point x="594" y="1224"/>
      <point x="596" y="1368" type="curve"/>
      <point x="524" y="1368" type="line"/>
      <point x="526" y="1224"/>
      <point x="528" y="1064"/>
      <point x="530" y="894" type="curve"/>
      <point x="530" y="462" type="line"/>
      <point x="528" y="292"/>
      <point x="526" y="156"/>
    </contour>
    <contour>
      <point x="120" y="876" type="line"/>
      <point x="236" y="878"/>
      <point x="370" y="880"/>
      <point x="440" y="880" type="curve"/>
      <point x="680" y="880" type="line"/>
      <point x="750" y="880"/>
      <point x="884" y="878"/>
      <point x="1000" y="876" type="curve"/>
      <point x="1000" y="944" type="line"/>
      <point x="884" y="942"/>
      <point x="750" y="940"/>
      <point x="680" y="940" type="curve"/>
      <point x="440" y="940" type="line"/>
      <point x="370" y="940"/>
      <point x="236" y="942"/>
      <point x="120" y="944" type="curve"/>
    </contour>
    <contour>
      <point x="120" y="416" type="line"/>
      <point x="236" y="418"/>
      <point x="370" y="420"/>
      <point x="440" y="420" type="curve"/>
      <point x="680" y="420" type="line"/>
      <point x="750" y="420"/>
      <point x="884" y="418"/>
      <point x="1000" y="416" type="curve"/>
      <point x="1000" y="484" type="line"/>
      <point x="884" y="482"/>
      <point x="750" y="480"/>
      <point x="680" y="480" type="curve"/>
      <point x="440" y="480" type="line"/>
      <point x="370" y="480"/>
      <point x="236" y="482"/>
      <point x="120" y="484" type="curve"/>
    </contour>
  </outline>
</glyph>
<glyph name="minute" format="2">
  <advance width="454"/>
  <unicode hex="2032"/>
  <outline>
    <contour>
      <point x="160" y="814" type="curve"/>
      <point x="212" y="816" type="line"/>
      <point x="232" y="1002"/>
      <point x="264" y="1188"/>
      <point x="294" y="1370" type="curve"/>
      <point x="192" y="1368" type="line"/>
      <point x="188" y="1186"/>
      <point x="180" y="1002"/>
    </contour>
  </outline>
</glyph>
<glyph name="guilsinglleft" format="2">
  <advance width="614"/>
  <unicode hex="2039"/>
  <outline>
    <contour>
      <point x="460" y="-4" type="curve"/>
      <point x="538" y="0" type="line"/>
      <point x="408" y="164"/>
      <point x="278" y="328"/>
      <point x="148" y="492" type="curve"/>
      <point x="148" y="504" type="line"/>
      <point x="278" y="668"/>
      <point x="408" y="832"/>
      <point x="538" y="996" type="curve"/>
      <point x="460" y="1000" type="line"/>
      <point x="330" y="832"/>
      <point x="200" y="666"/>
      <point x="70" y="498" type="curve"/>
      <point x="200" y="330"/>
      <point x="330" y="164"/>
    </contour>
  </outline>
</glyph>
<glyph name="fraction" format="2">
  <advance width="546"/>
  <unicode hex="2044"/>
  <outline>
    <contour>
      <point x="-168" y="0" type="curve"/>
      <point x="-88" y="0" type="line"/>
      <point x="-8" y="146"/>
      <point x="64" y="276"/>
      <point x="164" y="458" type="curve"/>
      <point x="442" y="954" type="line"/>
      <point x="550" y="1144"/>
      <point x="624" y="1272"/>
      <point x="712" y="1426" type="curve"/>
      <point x="632" y="1426" type="line"/>
      <point x="548" y="1272"/>
      <point x="478" y="1144"/>
      <point x="374" y="954" type="curve"/>
      <point x="96" y="458" type="line"/>
      <point x="-10" y="274"/>
      <point x="-84" y="146"/>
    </contour>
  </outline>
</glyph>
<glyph name="franc" format="2">
  <advance width="1136"/>
  <unicode hex="20A3"/>
  <outline>
    <contour>
      <point x="250" y="0" type="curve"/>
      <point x="322" y="0" type="line"/>
      <point x="320" y="156"/>
      <point x="318" y="290"/>
      <point x="316" y="456" type="curve"/>
      <point x="316" y="906" type="line"/>
      <point x="318" y="1074"/>
      <point x="320" y="1208"/>
      <point x="322" y="1364" type="curve"/>
      <point x="316" y="1368" type="line"/>
      <point x="250" y="1368" type="line"/>
      <point x="252" y="1214"/>
      <point x="252" y="1080"/>
      <point x="254" y="912" type="curve"/>
      <point x="254" y="456" type="line"/>
      <point x="252" y="290"/>
      <point x="252" y="156"/>
    </contour>
    <contour>
      <point x="304" y="1308" type="line"/>
      <point x="544" y="1308" type="line"/>
      <point x="752" y="1306"/>
      <point x="898" y="1304"/>
      <point x="1032" y="1302" type="curve"/>
      <point x="1032" y="1368" type="line"/>
      <point x="304" y="1368" type="line"/>
    </contour>
    <contour>
      <point x="304" y="666" type="line"/>
      <point x="558" y="666" type="line"/>
      <point x="718" y="664"/>
      <point x="858" y="664"/>
      <point x="988" y="662" type="curve"/>
      <point x="988" y="730" type="line"/>
      <point x="858" y="728"/>
      <point x="718" y="728"/>
      <point x="560" y="726" type="curve"/>
      <point x="304" y="726" type="line"/>
    </contour>
    <contour>
      <point x="76" y="312" type="line"/>
      <point x="192" y="314"/>
      <point x="326" y="316"/>
      <point x="396" y="316" type="curve"/>
      <point x="456" y="316" type="line"/>
      <point x="526" y="316"/>
      <point x="660" y="314"/>
      <point x="776" y="312" type="curve"/>
      <point x="776" y="376" type="line"/>
      <point x="660" y="374"/>
      <point x="526" y="372"/>
      <point x="456" y="372" type="curve"/>
      <point x="396" y="372" type="line"/>
      <point x="326" y="372"/>
      <point x="192" y="374"/>
      <point x="76" y="376" type="curve"/>
    </contour>
  </outline>
</glyph>
<glyph name="naira" format="2">
  <advance width="1570"/>
  <unicode hex="20A6"/>
  <outline>
    <contour>
      <point x="270" y="0" type="curve"/>
      <point x="342" y="0" type="line"/>
      <point x="340" y="156"/>
      <point x="338" y="290"/>
      <point x="336" y="456" type="curve"/>
      <point x="336" y="1256" type="line"/>
      <point x="344" y="1256" type="line"/>
      <point x="694" y="762" type="line"/>
      <point x="900" y="468"/>
      <point x="1074" y="220"/>
      <point x="1228" y="0" type="curve"/>
      <point x="1302" y="0" type="line"/>
      <point x="1300" y="156"/>
      <point x="1298" y="290"/>
      <point x="1296" y="456" type="curve"/>
      <point x="1296" y="912" type="line"/>
      <point x="1298" y="1080"/>
      <point x="1300" y="1214"/>
      <point x="1302" y="1368" type="curve"/>
      <point x="1230" y="1368" type="line"/>
      <point x="1232" y="1214"/>
      <point x="1232" y="1080"/>
      <point x="1234" y="912" type="curve"/>
      <point x="1234" y="120" type="line"/>
      <point x="1226" y="120" type="line"/>
      <point x="874" y="616" type="line"/>
      <point x="704" y="858"/>
      <point x="532" y="1104"/>
      <point x="346" y="1368" type="curve"/>
      <point x="270" y="1368" type="line"/>
      <point x="272" y="1214"/>
      <point x="272" y="1078"/>
      <point x="274" y="912" type="curve"/>
      <point x="274" y="456" type="line"/>
      <point x="272" y="290"/>
      <point x="272" y="156"/>
    </contour>
    <contour>
      <point x="76" y="676" type="line"/>
      <point x="192" y="678"/>
      <point x="326" y="680"/>
      <point x="396" y="680" type="curve"/>
      <point x="1174" y="680" type="line"/>
      <point x="1244" y="680"/>
      <point x="1378" y="678"/>
      <point x="1494" y="676" type="curve"/>
      <point x="1494" y="740" type="line"/>
      <point x="1378" y="738"/>
      <point x="1244" y="736"/>
      <point x="1174" y="736" type="curve"/>
      <point x="396" y="736" type="line"/>
      <point x="326" y="736"/>
      <point x="192" y="738"/>
      <point x="76" y="740" type="curve"/>
    </contour>
  </outline>
</glyph>
<glyph name="guarani" format="2">
  <advance width="1412"/>
  <unicode hex="20B2"/>
  <outline>
    <contour>
      <point x="834" y="-18" type="curve" smooth="yes"/>
      <point x="932" y="-18"/>
      <point x="1134" y="32"/>
      <point x="1260" y="72" type="curve"/>
      <point x="1248" y="146" type="line"/>
      <point x="1098" y="86"/>
      <point x="900" y="46"/>
      <point x="834" y="46" type="curve"/>
      <point x="382" y="50"/>
      <point x="184" y="326"/>
      <point x="184" y="690" type="curve" smooth="yes"/>
      <point x="184" y="1076"/>
      <point x="424" y="1324"/>
      <point x="782" y="1328" type="curve"/>
      <point x="838" y="1328"/>
      <point x="1034" y="1274"/>
      <point x="1222" y="1208" type="curve"/>
      <point x="1232" y="1282" type="line"/>
      <point x="1118" y="1316"/>
      <point x="876" y="1392"/>
      <point x="782" y="1392" type="curve" smooth="yes"/>
      <point x="390" y="1392"/>
      <point x="120" y="1098"/>
      <point x="120" y="690" type="curve" smooth="yes"/>
      <point x="120" y="294"/>
      <point x="362" y="-18"/>
    </contour>
    <contour>
      <point x="714" y="-274" type="curve"/>
      <point x="782" y="-274" type="line"/>
      <point x="780" y="2"/>
      <point x="778" y="308"/>
      <point x="778" y="384" type="curve"/>
      <point x="778" y="948" type="line"/>
      <point x="778" y="1024"/>
      <point x="780" y="1330"/>
      <point x="782" y="1606" type="curve"/>
      <point x="714" y="1606" type="line"/>
      <point x="716" y="1330"/>
      <point x="718" y="1024"/>
      <point x="718" y="948" type="curve"/>
      <point x="718" y="384" type="line"/>
      <point x="718" y="308"/>
      <point x="716" y="2"/>
    </contour>
    <contour>
      <point x="1190" y="70" type="curve"/>
      <point x="1260" y="72" type="line"/>
      <point x="1258" y="202"/>
      <point x="1258" y="272"/>
      <point x="1256" y="384" type="curve"/>
      <point x="1258" y="490"/>
      <point x="1260" y="574"/>
      <point x="1262" y="670" type="curve"/>
      <point x="1190" y="670" type="line"/>
      <point x="1192" y="574"/>
      <point x="1192" y="490"/>
      <point x="1194" y="384" type="curve"/>
      <point x="1192" y="268"/>
      <point x="1192" y="202"/>
    </contour>
  </outline>
</glyph>
<glyph name="manat" format="2">
  <advance width="1546"/>
  <unicode hex="20BC"/>
  <outline>
    <contour>
      <point x="196" y="0" type="curve"/>
      <point x="268" y="0" type="line"/>
      <point x="266" y="156"/>
      <point x="264" y="290"/>
      <point x="262" y="456" type="curve"/>
      <point x="262" y="804"/>
      <point x="400" y="1070"/>
      <point x="774" y="1076" type="curve"/>
      <point x="1140" y="1070"/>
      <point x="1284" y="826"/>
      <point x="1284" y="456" type="curve"/>
      <point x="1282" y="290"/>
      <point x="1282" y="156"/>
      <point x="1280" y="0" type="curve"/>
      <point x="1352" y="0" type="line"/>
      <point x="1350" y="156"/>
      <point x="1348" y="290"/>
      <point x="1346" y="456" type="curve"/>
      <point x="1346" y="860"/>
      <point x="1166" y="1140"/>
      <point x="774" y="1140" type="curve" smooth="yes"/>
      <point x="388" y="1140"/>
      <point x="200" y="864"/>
      <point x="200" y="456" type="curve"/>
      <point x="198" y="290"/>
      <point x="198" y="156"/>
    </contour>
    <contour>
      <point x="740" y="0" type="curve"/>
      <point x="808" y="0" type="line"/>
      <point x="806" y="276"/>
      <point x="804" y="582"/>
      <point x="804" y="658" type="curve"/>
      <point x="804" y="792" type="line"/>
      <point x="804" y="868"/>
      <point x="806" y="1174"/>
      <point x="808" y="1450" type="curve"/>
      <point x="740" y="1450" type="line"/>
      <point x="742" y="1174"/>
      <point x="744" y="868"/>
      <point x="744" y="792" type="curve"/>
      <point x="744" y="658" type="line"/>
      <point x="744" y="582"/>
      <point x="742" y="276"/>
    </contour>
  </outline>
</glyph>
<glyph name="emptyset" format="2">
  <advance width="1292"/>
  <unicode hex="2205"/>
  <outline>
    <contour>
      <point x="236" y="4" type="line"/>
      <point x="334" y="136"/>
      <point x="416" y="244"/>
      <point x="522" y="386" type="curve"/>
      <point x="808" y="760" type="line"/>
      <point x="916" y="898"/>
      <point x="1010" y="1018"/>
      <point x="1108" y="1142" type="curve"/>
      <point x="1052" y="1182" type="line"/>
      <point x="956" y="1054"/>
      <point x="872" y="942"/>
      <point x="764" y="798" type="curve"/>
      <point x="476" y="422" type="line"/>
      <point x="370" y="286"/>
      <point x="284" y="176"/>
      <point x="182" y="46" type="curve"/>
    </contour>
    <contour>
      <point x="644" y="72" type="curve" smooth="yes"/>
      <point x="942" y="72"/>
      <point x="1162" y="274"/>
      <point x="1162" y="592" type="curve" smooth="yes"/>
      <point x="1162" y="902"/>
      <point x="944" y="1116"/>
      <point x="648" y="1116" type="curve" smooth="yes"/>
      <point x="348" y="1116"/>
      <point x="130" y="898"/>
      <point x="130" y="592" type="curve" smooth="yes"/>
      <point x="130" y="274"/>
      <point x="348" y="72"/>
    </contour>
    <contour>
      <point x="644" y="134" type="curve"/>
      <point x="392" y="138"/>
      <point x="192" y="280"/>
      <point x="192" y="592" type="curve" smooth="yes"/>
      <point x="192" y="886"/>
      <point x="396" y="1048"/>
      <point x="648" y="1052" type="curve"/>
      <point x="900" y="1048"/>
      <point x="1100" y="886"/>
      <point x="1100" y="592" type="curve" smooth="yes"/>
      <point x="1100" y="280"/>
      <point x="900" y="138"/>
    </contour>
  </outline>
</glyph>
<glyph name="increment" format="2">
  <advance width="1352"/>
  <unicode hex="2206"/>
  <outline>
    <contour>
      <point x="80" y="0" type="line"/>
      <point x="152" y="0" type="line"/>
      <point x="152" y="44" type="line"/>
      <point x="216" y="210"/>
      <point x="288" y="390"/>
      <point x="350" y="550" type="curve"/>
      <point x="674" y="1354" type="line"/>
      <point x="686" y="1354" type="line"/>
      <point x="1008" y="544" type="line"/>
      <point x="1066" y="392"/>
      <point x="1136" y="210"/>
      <point x="1200" y="44" type="curve"/>
      <point x="1200" y="0" type="line"/>
      <point x="1272" y="0" type="line"/>
      <point x="1272" y="58" type="line"/>
      <point x="1218" y="192"/>
      <point x="1158" y="342"/>
      <point x="1102" y="480" type="curve"/>
      <point x="906" y="974" type="line"/>
      <point x="840" y="1148"/>
      <point x="790" y="1278"/>
      <point x="734" y="1426" type="curve"/>
      <point x="626" y="1426" type="line"/>
      <point x="572" y="1286"/>
      <point x="518" y="1146"/>
      <point x="452" y="974" type="curve"/>
      <point x="254" y="482" type="line"/>
      <point x="198" y="346"/>
      <point x="136" y="194"/>
      <point x="80" y="56" type="curve"/>
    </contour>
    <contour>
      <point x="112" y="0" type="line"/>
      <point x="1246" y="0" type="line"/>
      <point x="1246" y="62" type="line"/>
      <point x="112" y="62" type="line"/>
    </contour>
  </outline>
</glyph>
<glyph name="summation" format="2">
  <advance width="1228"/>
  <unicode hex="2211"/>
  <outline>
    <contour>
      <point x="108" y="-384" type="line"/>
      <point x="1158" y="-384" type="line"/>
      <point x="1158" y="-312" type="line"/>
      <point x="982" y="-314"/>
      <point x="694" y="-318"/>
      <point x="498" y="-322" type="curve"/>
      <point x="130" y="-322" type="line"/>
      <point x="158" y="-372" type="line"/>
      <point x="404" y="-36" type="line"/>
      <point x="548" y="158"/>
      <point x="702" y="364"/>
      <point x="846" y="558" type="curve"/>
      <point x="706" y="730"/>
      <point x="552" y="920"/>
      <point x="410" y="1094" type="curve"/>
      <point x="166" y="1400" type="line"/>
      <point x="120" y="1364" type="line"/>
      <point x="526" y="1364" type="line"/>
      <point x="710" y="1362"/>
      <point x="916" y="1358"/>
      <point x="1140" y="1356" type="curve"/>
      <point x="1140" y="1426" type="line"/>
      <point x="110" y="1426" type="line"/>
      <point x="110" y="1364" type="line"/>
      <point x="246" y="1194"/>
      <point x="378" y="1030"/>
      <point x="510" y="866" type="curve"/>
      <point x="772" y="538" type="line"/>
      <point x="772" y="576" type="line"/>
      <point x="544" y="264" type="line"/>
      <point x="412" y="84"/>
      <point x="228" y="-166"/>
      <point x="108" y="-328" type="curve"/>
    </contour>
  </outline>
</glyph>
<glyph name="infinity" format="2">
  <advance width="1796"/>
  <unicode hex="221E"/>
  <outline>
    <contour>
      <point x="1316" y="172" type="curve" smooth="yes"/>
      <point x="1558" y="172"/>
      <point x="1672" y="372"/>
      <point x="1672" y="590" type="curve" smooth="yes"/>
      <point x="1672" y="822"/>
      <point x="1542" y="1008"/>
      <point x="1312" y="1008" type="curve" smooth="yes"/>
      <point x="1178" y="1008"/>
      <point x="1004" y="836"/>
      <point x="872" y="608" type="curve"/>
      <point x="872" y="572" type="line"/>
      <point x="1004" y="338"/>
      <point x="1176" y="172"/>
    </contour>
    <contour>
      <point x="480" y="172" type="curve" smooth="yes"/>
      <point x="620" y="172"/>
      <point x="792" y="338"/>
      <point x="924" y="572" type="curve"/>
      <point x="924" y="608" type="line"/>
      <point x="792" y="836"/>
      <point x="618" y="1008"/>
      <point x="484" y="1008" type="curve" smooth="yes"/>
      <point x="254" y="1008"/>
      <point x="124" y="822"/>
      <point x="124" y="590" type="curve" smooth="yes"/>
      <point x="124" y="372"/>
      <point x="238" y="172"/>
    </contour>
    <contour>
      <point x="482" y="234" type="curve"/>
      <point x="300" y="240"/>
      <point x="186" y="362"/>
      <point x="186" y="590" type="curve" smooth="yes"/>
      <point x="186" y="816"/>
      <point x="304" y="940"/>
      <point x="484" y="946" type="curve"/>
      <point x="586" y="942"/>
      <point x="742" y="800"/>
      <point x="864" y="590" type="curve"/>
      <point x="744" y="376"/>
      <point x="590" y="238"/>
    </contour>
    <contour>
      <point x="1314" y="234" type="curve"/>
      <point x="1206" y="238"/>
      <point x="1052" y="376"/>
      <point x="932" y="590" type="curve"/>
      <point x="1054" y="800"/>
      <point x="1210" y="942"/>
      <point x="1312" y="946" type="curve"/>
      <point x="1492" y="940"/>
      <point x="1610" y="816"/>
      <point x="1610" y="590" type="curve" smooth="yes"/>
      <point x="1610" y="362"/>
      <point x="1496" y="240"/>
    </contour>
  </outline>
</glyph>
<glyph name="integral" format="2">
  <advance width="748"/>
  <unicode hex="222B"/>
  <outline>
    <contour>
      <point x="158" y="-404" type="curve" smooth="yes"/>
      <point x="284" y="-404"/>
      <point x="408" y="-334"/>
      <point x="408" y="-80" type="curve" smooth="yes"/>
      <point x="408" y="174"/>
      <point x="402" y="748"/>
      <point x="402" y="1162" type="curve" smooth="yes"/>
      <point x="402" y="1332"/>
      <point x="458" y="1420"/>
      <point x="590" y="1424" type="curve"/>
      <point x="600" y="1424"/>
      <point x="664" y="1414"/>
      <point x="720" y="1402" type="curve"/>
      <point x="728" y="1472" type="line"/>
      <point x="692" y="1478"/>
      <point x="614" y="1488"/>
      <point x="590" y="1488" type="curve" smooth="yes"/>
      <point x="464" y="1488"/>
      <point x="340" y="1418"/>
      <point x="340" y="1164" type="curve" smooth="yes"/>
      <point x="340" y="910"/>
      <point x="346" y="336"/>
      <point x="346" y="-78" type="curve" smooth="yes"/>
      <point x="346" y="-248"/>
      <point x="290" y="-336"/>
      <point x="158" y="-340" type="curve"/>
      <point x="148" y="-340"/>
      <point x="84" y="-330"/>
      <point x="28" y="-318" type="curve"/>
      <point x="20" y="-388" type="line"/>
      <point x="56" y="-394"/>
      <point x="134" y="-404"/>
    </contour>
  </outline>
</glyph>
<glyph name="approxequal" format="2">
  <advance width="1120"/>
  <unicode hex="2248"/>
  <outline>
    <contour>
      <point x="782" y="650" type="curve" smooth="yes"/>
      <point x="892" y="650"/>
      <point x="980" y="728"/>
      <point x="980" y="872" type="curve"/>
      <point x="922" y="872" type="line"/>
      <point x="916" y="760"/>
      <point x="862" y="716"/>
      <point x="778" y="712" type="curve"/>
      <point x="636" y="716"/>
      <point x="500" y="898"/>
      <point x="340" y="898" type="curve" smooth="yes"/>
      <point x="230" y="898"/>
      <point x="140" y="820"/>
      <point x="140" y="676" type="curve"/>
      <point x="198" y="676" type="line"/>
      <point x="204" y="788"/>
      <point x="260" y="832"/>
      <point x="344" y="836" type="curve"/>
      <point x="486" y="832"/>
      <point x="622" y="650"/>
    </contour>
    <contour>
      <point x="780" y="246" type="curve" smooth="yes"/>
      <point x="890" y="246"/>
      <point x="978" y="324"/>
      <point x="978" y="468" type="curve"/>
      <point x="920" y="468" type="line"/>
      <point x="914" y="356"/>
      <point x="860" y="312"/>
      <point x="776" y="308" type="curve"/>
      <point x="634" y="312"/>
      <point x="498" y="494"/>
      <point x="338" y="494" type="curve" smooth="yes"/>
      <point x="228" y="494"/>
      <point x="138" y="416"/>
      <point x="138" y="272" type="curve"/>
      <point x="196" y="272" type="line"/>
      <point x="202" y="384"/>
      <point x="258" y="428"/>
      <point x="342" y="432" type="curve"/>
      <point x="484" y="428"/>
      <point x="620" y="246"/>
    </contour>
  </outline>
</glyph>
<glyph name="lessequal" format="2">
  <advance width="1120"/>
  <unicode hex="2264"/>
  <outline>
    <contour>
      <point x="980" y="320" type="curve"/>
      <point x="980" y="398" type="line"/>
      <point x="822" y="466"/>
      <point x="648" y="542"/>
      <point x="486" y="612" type="curve"/>
      <point x="224" y="730" type="line"/>
      <point x="224" y="742" type="line"/>
      <point x="486" y="860" type="line"/>
      <point x="648" y="930"/>
      <point x="822" y="1006"/>
      <point x="980" y="1074" type="curve"/>
      <point x="980" y="1152" type="line"/>
      <point x="864" y="1098"/>
      <point x="748" y="1044"/>
      <point x="658" y="1002" type="curve"/>
      <point x="458" y="912" type="line"/>
      <point x="362" y="870"/>
      <point x="254" y="822"/>
      <point x="140" y="772" type="curve"/>
      <point x="140" y="700" type="line"/>
      <point x="254" y="652"/>
      <point x="366" y="602"/>
      <point x="458" y="560" type="curve"/>
      <point x="658" y="470" type="line"/>
      <point x="752" y="426"/>
      <point x="868" y="372"/>
    </contour>
    <contour>
      <point x="140" y="-4" type="line"/>
      <point x="256" y="-2"/>
      <point x="390" y="0"/>
      <point x="460" y="0" type="curve"/>
      <point x="660" y="0" type="line"/>
      <point x="730" y="0"/>
      <point x="864" y="-2"/>
      <point x="980" y="-4" type="curve"/>
      <point x="980" y="64" type="line"/>
      <point x="864" y="62"/>
      <point x="730" y="60"/>
      <point x="660" y="60" type="curve"/>
      <point x="460" y="60" type="line"/>
      <point x="390" y="60"/>
      <point x="256" y="62"/>
      <point x="140" y="64" type="curve"/>
    </contour>
  </outline>
</glyph>
<glyph name="greaterequal" format="2">
  <advance width="1120"/>
  <unicode hex="2265"/>
  <outline>
    <contour>
      <point x="140" y="-4" type="line"/>
      <point x="256" y="-2"/>
      <point x="390" y="0"/>
      <point x="460" y="0" type="curve"/>
      <point x="660" y="0" type="line"/>
      <point x="730" y="0"/>
      <point x="864" y="-2"/>
      <point x="980" y="-4" type="curve"/>
      <point x="980" y="64" type="line"/>
      <point x="864" y="62"/>
      <point x="730" y="60"/>
      <point x="660" y="60" type="curve"/>
      <point x="460" y="60" type="line"/>
      <point x="390" y="60"/>
      <point x="256" y="62"/>
      <point x="140" y="64" type="curve"/>
    </contour>
    <contour>
      <point x="140" y="320" type="line"/>
      <point x="256" y="374"/>
      <point x="372" y="428"/>
      <point x="462" y="470" type="curve"/>
      <point x="662" y="560" type="line"/>
      <point x="758" y="602"/>
      <point x="866" y="650"/>
      <point x="980" y="700" type="curve"/>
      <point x="980" y="772" type="line"/>
      <point x="866" y="820"/>
      <point x="754" y="870"/>
      <point x="662" y="912" type="curve"/>
      <point x="462" y="1002" type="line"/>
      <point x="368" y="1046"/>
      <point x="252" y="1100"/>
      <point x="140" y="1152" type="curve"/>
      <point x="140" y="1074" type="line"/>
      <point x="298" y="1006"/>
      <point x="472" y="930"/>
      <point x="634" y="860" type="curve"/>
      <point x="896" y="742" type="line"/>
      <point x="896" y="730" type="line"/>
      <point x="634" y="612" type="line"/>
      <point x="472" y="542"/>
      <point x="298" y="466"/>
      <point x="140" y="398" type="curve"/>
    </contour>
  </outline>
</glyph>
<glyph name="OE.001" format="2">
  <advance width="2414"/>
  <anchor x="1208" y="0" name="bottom"/>
  <anchor x="1208" y="1426" name="top"/>
  <outline>
    <contour>
      <point x="826" y="-18" type="curve" smooth="yes"/>
      <point x="1248" y="-18"/>
      <point x="1514" y="296"/>
      <point x="1514" y="716" type="curve"/>
      <point x="1514" y="718" type="line"/>
      <point x="1514" y="1126"/>
      <point x="1260" y="1450"/>
      <point x="822" y="1450" type="curve" smooth="yes"/>
      <point x="390" y="1450"/>
      <point x="120" y="1130"/>
      <point x="120" y="716" type="curve" smooth="yes"/>
      <point x="120" y="316"/>
      <point x="366" y="-18"/>
    </contour>
    <contour>
      <point x="822" y="48" type="curve"/>
      <point x="380" y="56"/>
      <point x="186" y="360"/>
      <point x="186" y="716" type="curve" smooth="yes"/>
      <point x="186" y="1070"/>
      <point x="388" y="1376"/>
      <point x="822" y="1384" type="curve"/>
      <point x="1242" y="1376"/>
      <point x="1452" y="1094"/>
      <point x="1452" y="716" type="curve" smooth="yes"/>
      <point x="1452" y="368"/>
      <point x="1264" y="56"/>
    </contour>
    <contour>
      <point x="1448" y="0" type="curve"/>
      <point x="1522" y="0" type="line"/>
      <point x="1522" y="6" type="line"/>
      <point x="1520" y="168"/>
      <point x="1518" y="310"/>
      <point x="1516" y="484" type="curve"/>
      <point x="1516" y="944" type="line"/>
      <point x="1518" y="1118"/>
      <point x="1520" y="1258"/>
      <point x="1522" y="1420" type="curve"/>
      <point x="1522" y="1426" type="line"/>
      <point x="1448" y="1426" type="line"/>
      <point x="1450" y="1264"/>
      <point x="1450" y="1124"/>
      <point x="1452" y="950" type="curve"/>
      <point x="1452" y="476" type="line"/>
      <point x="1450" y="302"/>
      <point x="1450" y="162"/>
    </contour>
    <contour>
      <point x="1504" y="0" type="line"/>
      <point x="2288" y="0" type="line"/>
      <point x="2288" y="64" type="line"/>
      <point x="2134" y="64"/>
      <point x="1970" y="62"/>
      <point x="1784" y="62" type="curve"/>
      <point x="1504" y="62" type="line"/>
    </contour>
    <contour>
      <point x="1504" y="694" type="line"/>
      <point x="1792" y="694" type="line"/>
      <point x="1980" y="694"/>
      <point x="2106" y="692"/>
      <point x="2244" y="692" type="curve"/>
      <point x="2244" y="758" type="line"/>
      <point x="2114" y="758"/>
      <point x="1986" y="756"/>
      <point x="1794" y="756" type="curve"/>
      <point x="1504" y="756" type="line"/>
    </contour>
    <contour>
      <point x="1504" y="1364" type="line"/>
      <point x="1776" y="1364" type="line"/>
      <point x="1996" y="1364"/>
      <point x="2148" y="1362"/>
      <point x="2290" y="1362" type="curve"/>
      <point x="2290" y="1426" type="line"/>
      <point x="1504" y="1426" type="line"/>
    </contour>
  </outline>
</glyph>
<glyph name=".notdef" format="2">
  <advance width="1270"/>
  <outline>
    <contour>
      <point x="100" y="-384" type="line"/>
      <point x="1170" y="-384" type="line"/>
      <point x="1170" y="1636" type="line"/>
      <point x="100" y="1636" type="line"/>
    </contour>
    <contour>
      <point x="160" y="-324" type="line"/>
      <point x="160" y="1576" type="line"/>
      <point x="1110" y="1576" type="line"/>
      <point x="1110" y="-324" type="line"/>
    </contour>
    <contour>
      <point x="658" y="382" type="curve" smooth="yes"/>
      <point x="678" y="382"/>
      <point x="726" y="388"/>
      <point x="772" y="396" type="curve"/>
      <point x="766" y="448" type="line"/>
      <point x="732" y="440"/>
      <point x="682" y="428"/>
      <point x="658" y="428" type="curve"/>
      <point x="582" y="430"/>
      <point x="516" y="458"/>
      <point x="516" y="548" type="curve" smooth="yes"/>
      <point x="516" y="628"/>
      <point x="588" y="686"/>
      <point x="674" y="748" type="curve" smooth="yes"/>
      <point x="776" y="822"/>
      <point x="890" y="908"/>
      <point x="890" y="1056" type="curve" smooth="yes"/>
      <point x="890" y="1200"/>
      <point x="778" y="1280"/>
      <point x="624" y="1280" type="curve" smooth="yes"/>
      <point x="578" y="1280"/>
      <point x="448" y="1242"/>
      <point x="382" y="1222" type="curve"/>
      <point x="386" y="1164" type="line"/>
      <point x="488" y="1198"/>
      <point x="594" y="1228"/>
      <point x="626" y="1228" type="curve"/>
      <point x="758" y="1226"/>
      <point x="838" y="1168"/>
      <point x="838" y="1058" type="curve" smooth="yes"/>
      <point x="838" y="932"/>
      <point x="736" y="856"/>
      <point x="642" y="784" type="curve" smooth="yes"/>
      <point x="552" y="716"/>
      <point x="464" y="652"/>
      <point x="464" y="548" type="curve" smooth="yes"/>
      <point x="464" y="448"/>
      <point x="544" y="382"/>
    </contour>
    <contour>
      <point x="616" y="18" type="curve" smooth="yes"/>
      <point x="664" y="18"/>
      <point x="692" y="40"/>
      <point x="692" y="98" type="curve" smooth="yes"/>
      <point x="692" y="146"/>
      <point x="664" y="168"/>
      <point x="616" y="168" type="curve" smooth="yes"/>
      <point x="572" y="168"/>
      <point x="542" y="146"/>
      <point x="542" y="98" type="curve" smooth="yes"/>
      <point x="542" y="40"/>
      <point x="572" y="18"/>
    </contour>
  </outline>
</glyph>
<glyph name="_slash.Lslash" format="2">
  <advance width="1152"/>
  <anchor x="574" y="714" name="_center"/>
  <outline>
    <contour>
      <point x="20" y="586" type="line"/>
      <point x="144" y="624"/>
      <point x="258" y="660"/>
      <point x="356" y="690" type="curve"/>
      <point x="450" y="718" type="line"/>
      <point x="550" y="746"/>
      <point x="660" y="778"/>
      <point x="788" y="814" type="curve"/>
      <point x="768" y="880" type="line"/>
      <point x="646" y="842"/>
      <point x="536" y="808"/>
      <point x="432" y="776" type="curve"/>
      <point x="340" y="748" type="line"/>
      <point x="240" y="720"/>
      <point x="126" y="688"/>
      <point x="0" y="652" type="curve"/>
    </contour>
  </outline>
</glyph>
<glyph name="_strokeshortcomb.Eth" format="2">
  <advance width="1478"/>
  <anchor x="740" y="714" name="_center"/>
  <outline>
    <contour>
      <point x="-20" y="658" type="line"/>
      <point x="102" y="660"/>
      <point x="196" y="660"/>
      <point x="314" y="662" type="curve"/>
      <point x="406" y="662" type="line"/>
      <point x="524" y="660"/>
      <point x="618" y="660"/>
      <point x="740" y="658" type="curve"/>
      <point x="740" y="726" type="line"/>
      <point x="618" y="724"/>
      <point x="524" y="724"/>
      <point x="406" y="722" type="curve"/>
      <point x="314" y="722" type="line"/>
      <point x="196" y="724"/>
      <point x="102" y="724"/>
      <point x="-20" y="726" type="curve"/>
    </contour>
  </outline>
</glyph>
<glyph name="_strokeshortcomb.Tbar" format="2">
  <advance width="1478"/>
  <anchor x="740" y="714" name="_center"/>
  <outline>
    <contour>
      <point x="360" y="658" type="line"/>
      <point x="482" y="660"/>
      <point x="576" y="660"/>
      <point x="694" y="662" type="curve"/>
      <point x="786" y="662" type="line"/>
      <point x="904" y="660"/>
      <point x="998" y="660"/>
      <point x="1120" y="658" type="curve"/>
      <point x="1120" y="726" type="line"/>
      <point x="998" y="724"/>
      <point x="904" y="724"/>
      <point x="786" y="722" type="curve"/>
      <point x="694" y="722" type="line"/>
      <point x="576" y="724"/>
      <point x="482" y="724"/>
      <point x="360" y="726" type="curve"/>
    </contour>
  </outline>
</glyph>
<glyph name="brevecomb_gravecomb.case" format="2">
  <anchor x="597" y="988" name="_top"/>
  <outline>
    <contour>
      <point x="596" y="1150" type="curve" smooth="yes"/>
      <point x="780" y="1150"/>
      <point x="882" y="1276"/>
      <point x="882" y="1436" type="curve"/>
      <point x="824" y="1436" type="line"/>
      <point x="824" y="1292"/>
      <point x="742" y="1216"/>
      <point x="596" y="1212" type="curve"/>
      <point x="452" y="1216"/>
      <point x="370" y="1292"/>
      <point x="370" y="1438" type="curve"/>
      <point x="312" y="1436" type="line"/>
      <point x="312" y="1276"/>
      <point x="416" y="1150"/>
    </contour>
    <contour>
      <point x="644" y="1448" type="curve"/>
      <point x="710" y="1450" type="line"/>
      <point x="614" y="1566"/>
      <point x="520" y="1684"/>
      <point x="426" y="1798" type="curve"/>
      <point x="334" y="1798" type="line"/>
      <point x="434" y="1678"/>
      <point x="538" y="1564"/>
    </contour>
  </outline>
</glyph>
<glyph name="brevecomb_tildecomb" format="2">
  <anchor x="598" y="988" name="_top"/>
  <outline>
    <contour>
      <point x="596" y="1170" type="curve" smooth="yes"/>
      <point x="780" y="1170"/>
      <point x="882" y="1296"/>
      <point x="882" y="1516" type="curve"/>
      <point x="824" y="1516" type="line"/>
      <point x="824" y="1312"/>
      <point x="742" y="1236"/>
      <point x="596" y="1232" type="curve"/>
      <point x="452" y="1236"/>
      <point x="370" y="1312"/>
      <point x="370" y="1518" type="curve"/>
      <point x="312" y="1516" type="line"/>
      <point x="312" y="1296"/>
      <point x="416" y="1170"/>
    </contour>
    <contour>
      <point x="760" y="1614" type="curve" smooth="yes"/>
      <point x="864" y="1614"/>
      <point x="926" y="1692"/>
      <point x="926" y="1836" type="curve"/>
      <point x="870" y="1836" type="line"/>
      <point x="862" y="1724"/>
      <point x="836" y="1680"/>
      <point x="762" y="1676" type="curve"/>
      <point x="642" y="1680"/>
      <point x="580" y="1862"/>
      <point x="436" y="1862" type="curve" smooth="yes"/>
      <point x="332" y="1862"/>
      <point x="270" y="1784"/>
      <point x="270" y="1640" type="curve"/>
      <point x="326" y="1640" type="line"/>
      <point x="332" y="1752"/>
      <point x="362" y="1796"/>
      <point x="434" y="1800" type="curve"/>
      <point x="554" y="1796"/>
      <point x="616" y="1614"/>
    </contour>
  </outline>
</glyph>
<glyph name="cedi.BRACKET.140" format="2">
  <advance width="1312"/>
  <outline>
    <contour>
      <point x="798" y="-18" type="curve" smooth="yes"/>
      <point x="890" y="-18"/>
      <point x="1076" y="40"/>
      <point x="1194" y="86" type="curve"/>
      <point x="1182" y="164" type="line"/>
      <point x="1042" y="94"/>
      <point x="856" y="46"/>
      <point x="794" y="46" type="curve"/>
      <point x="396" y="50"/>
      <point x="184" y="332"/>
      <point x="184" y="688" type="curve" smooth="yes"/>
      <point x="184" y="1074"/>
      <point x="426" y="1324"/>
      <point x="770" y="1328" type="curve"/>
      <point x="824" y="1328"/>
      <point x="1012" y="1272"/>
      <point x="1194" y="1204" type="curve"/>
      <point x="1204" y="1278" type="line"/>
      <point x="1094" y="1314"/>
      <point x="862" y="1392"/>
      <point x="772" y="1392" type="curve" smooth="yes"/>
      <point x="400" y="1392"/>
      <point x="120" y="1106"/>
      <point x="120" y="690" type="curve" smooth="yes"/>
      <point x="120" y="294"/>
      <point x="378" y="-18"/>
    </contour>
    <contour>
      <point x="708" y="-274" type="curve"/>
      <point x="776" y="-274" type="line"/>
      <point x="776" y="-176"/>
      <point x="774" y="-76"/>
      <point x="774" y="18" type="curve"/>
      <point x="710" y="18" type="line"/>
      <point x="710" y="-76"/>
      <point x="708" y="-176"/>
    </contour>
    <contour>
      <point x="710" y="1350" type="curve"/>
      <point x="774" y="1350" type="line"/>
      <point x="774" y="1434"/>
      <point x="776" y="1522"/>
      <point x="776" y="1606" type="curve"/>
      <point x="708" y="1606" type="line"/>
      <point x="708" y="1522"/>
      <point x="710" y="1434"/>
    </contour>
  </outline>
</glyph>
<glyph name="cent.BRACKET.140" format="2">
  <advance width="1004"/>
  <anchor x="580" y="0" name="bottom"/>
  <anchor x="562" y="988" name="top"/>
  <outline>
    <contour>
      <point x="522" y="-274" type="curve"/>
      <point x="588" y="-274" type="line"/>
      <point x="588" y="-176"/>
      <point x="586" y="-76"/>
      <point x="586" y="18" type="curve"/>
      <point x="524" y="18" type="line"/>
      <point x="524" y="-76"/>
      <point x="522" y="-176"/>
    </contour>
    <contour>
      <point x="524" y="964" type="curve"/>
      <point x="586" y="964" type="line"/>
      <point x="586" y="1054"/>
      <point x="588" y="1152"/>
      <point x="588" y="1246" type="curve"/>
      <point x="522" y="1246" type="line"/>
      <point x="522" y="1152"/>
      <point x="524" y="1054"/>
    </contour>
    <contour>
      <point x="608" y="-18" type="curve" smooth="yes"/>
      <point x="674" y="-18"/>
      <point x="812" y="22"/>
      <point x="898" y="54" type="curve"/>
      <point x="884" y="126" type="line"/>
      <point x="784" y="80"/>
      <point x="652" y="46"/>
      <point x="608" y="46" type="curve"/>
      <point x="324" y="52"/>
      <point x="186" y="244"/>
      <point x="186" y="496" type="curve" smooth="yes"/>
      <point x="186" y="770"/>
      <point x="346" y="938"/>
      <point x="592" y="944" type="curve"/>
      <point x="628" y="944"/>
      <point x="758" y="908"/>
      <point x="882" y="862" type="curve"/>
      <point x="892" y="934" type="line"/>
      <point x="816" y="958"/>
      <point x="652" y="1008"/>
      <point x="590" y="1008" type="curve" smooth="yes"/>
      <point x="300" y="1008"/>
      <point x="124" y="786"/>
      <point x="124" y="496" type="curve" smooth="yes"/>
      <point x="124" y="208"/>
      <point x="298" y="-18"/>
    </contour>
  </outline>
</glyph>
<glyph name="circumflexcomb_acutecomb.case" format="2">
  <anchor x="600" y="988" name="_top"/>
  <outline>
    <contour>
      <point x="800" y="1420" type="curve"/>
      <point x="866" y="1422" type="line"/>
      <point x="972" y="1538"/>
      <point x="1076" y="1652"/>
      <point x="1176" y="1770" type="curve"/>
      <point x="1084" y="1770" type="line"/>
      <point x="988" y="1654"/>
      <point x="896" y="1538"/>
    </contour>
    <contour>
      <point x="266" y="1154" type="curve"/>
      <point x="332" y="1154" type="line"/>
      <point x="438" y="1270"/>
      <point x="538" y="1384"/>
      <point x="638" y="1500" type="curve"/>
      <point x="550" y="1500" type="line"/>
      <point x="456" y="1384"/>
      <point x="362" y="1270"/>
    </contour>
    <contour>
      <point x="862" y="1150" type="curve"/>
      <point x="928" y="1152" type="line"/>
      <point x="832" y="1268"/>
      <point x="738" y="1386"/>
      <point x="644" y="1500" type="curve"/>
      <point x="556" y="1500" type="line"/>
      <point x="656" y="1382"/>
      <point x="756" y="1268"/>
    </contour>
  </outline>
</glyph>
<glyph name="circumflexcomb_acutecomb" format="2">
  <anchor x="597" y="988" name="_top"/>
  <outline>
    <contour>
      <point x="800" y="1480" type="curve"/>
      <point x="866" y="1482" type="line"/>
      <point x="972" y="1610"/>
      <point x="1076" y="1736"/>
      <point x="1176" y="1866" type="curve"/>
      <point x="1084" y="1864" type="line"/>
      <point x="990" y="1738"/>
      <point x="896" y="1608"/>
    </contour>
    <contour>
      <point x="266" y="1174" type="curve"/>
      <point x="332" y="1174" type="line"/>
      <point x="438" y="1302"/>
      <point x="538" y="1428"/>
      <point x="638" y="1554" type="curve"/>
      <point x="550" y="1554" type="line"/>
      <point x="456" y="1428"/>
      <point x="362" y="1302"/>
    </contour>
    <contour>
      <point x="862" y="1170" type="curve"/>
      <point x="928" y="1172" type="line"/>
      <point x="832" y="1300"/>
      <point x="738" y="1430"/>
      <point x="644" y="1554" type="curve"/>
      <point x="556" y="1554" type="line"/>
      <point x="656" y="1426"/>
      <point x="756" y="1300"/>
    </contour>
  </outline>
</glyph>
<glyph name="circumflexcomb_gravecomb.case" format="2">
  <anchor x="600" y="988" name="_top"/>
  <outline>
    <contour>
      <point x="934" y="1422" type="curve"/>
      <point x="1000" y="1424" type="line"/>
      <point x="904" y="1540"/>
      <point x="810" y="1658"/>
      <point x="716" y="1772" type="curve"/>
      <point x="624" y="1772" type="line"/>
      <point x="724" y="1652"/>
      <point x="828" y="1538"/>
    </contour>
    <contour>
      <point x="266" y="1154" type="curve"/>
      <point x="332" y="1154" type="line"/>
      <point x="438" y="1270"/>
      <point x="538" y="1384"/>
      <point x="638" y="1500" type="curve"/>
      <point x="550" y="1500" type="line"/>
      <point x="456" y="1384"/>
      <point x="362" y="1270"/>
    </contour>
    <contour>
      <point x="862" y="1150" type="curve"/>
      <point x="928" y="1152" type="line"/>
      <point x="832" y="1268"/>
      <point x="738" y="1386"/>
      <point x="644" y="1500" type="curve"/>
      <point x="556" y="1500" type="line"/>
      <point x="656" y="1382"/>
      <point x="756" y="1268"/>
    </contour>
  </outline>
</glyph>
<glyph name="circumflexcomb_gravecomb" format="2">
  <anchor x="597" y="988" name="_top"/>
  <outline>
    <contour>
      <point x="932" y="1480" type="curve"/>
      <point x="998" y="1482" type="line"/>
      <point x="902" y="1610"/>
      <point x="808" y="1740"/>
      <point x="714" y="1866" type="curve"/>
      <point x="622" y="1864" type="line"/>
      <point x="722" y="1734"/>
      <point x="826" y="1608"/>
    </contour>
    <contour>
      <point x="266" y="1174" type="curve"/>
      <point x="332" y="1174" type="line"/>
      <point x="438" y="1302"/>
      <point x="538" y="1428"/>
      <point x="638" y="1554" type="curve"/>
      <point x="550" y="1554" type="line"/>
      <point x="456" y="1428"/>
      <point x="362" y="1302"/>
    </contour>
    <contour>
      <point x="862" y="1170" type="curve"/>
      <point x="928" y="1172" type="line"/>
      <point x="832" y="1300"/>
      <point x="738" y="1430"/>
      <point x="644" y="1554" type="curve"/>
      <point x="556" y="1554" type="line"/>
      <point x="656" y="1426"/>
      <point x="756" y="1300"/>
    </contour>
  </outline>
</glyph>
<glyph name="circumflexcomb_tildecomb" format="2">
  <anchor x="598" y="988" name="_top"/>
  <outline>
    <contour>
      <point x="760" y="1614" type="curve" smooth="yes"/>
      <point x="864" y="1614"/>
      <point x="926" y="1692"/>
      <point x="926" y="1836" type="curve"/>
      <point x="870" y="1836" type="line"/>
      <point x="862" y="1724"/>
      <point x="836" y="1680"/>
      <point x="762" y="1676" type="curve"/>
      <point x="642" y="1680"/>
      <point x="580" y="1862"/>
      <point x="436" y="1862" type="curve" smooth="yes"/>
      <point x="332" y="1862"/>
      <point x="270" y="1784"/>
      <point x="270" y="1640" type="curve"/>
      <point x="326" y="1640" type="line"/>
      <point x="332" y="1752"/>
      <point x="362" y="1796"/>
      <point x="434" y="1800" type="curve"/>
      <point x="554" y="1796"/>
      <point x="616" y="1614"/>
    </contour>
    <contour>
      <point x="266" y="1174" type="curve"/>
      <point x="332" y="1174" type="line"/>
      <point x="438" y="1302"/>
      <point x="538" y="1428"/>
      <point x="638" y="1554" type="curve"/>
      <point x="550" y="1554" type="line"/>
      <point x="456" y="1428"/>
      <point x="362" y="1302"/>
    </contour>
    <contour>
      <point x="862" y="1170" type="curve"/>
      <point x="928" y="1172" type="line"/>
      <point x="832" y="1300"/>
      <point x="738" y="1430"/>
      <point x="644" y="1554" type="curve"/>
      <point x="556" y="1554" type="line"/>
      <point x="656" y="1426"/>
      <point x="756" y="1300"/>
    </contour>
  </outline>
</glyph>
<glyph name="dieresiscomb.case" format="2">
  <anchor x="598" y="988" name="_top"/>
  <anchor x="596" y="1330" name="top"/>
  <outline>
    <contour>
      <point x="796" y="1236" type="curve" smooth="yes"/>
      <point x="848" y="1236"/>
      <point x="868" y="1266"/>
      <point x="868" y="1330" type="curve" smooth="yes"/>
      <point x="868" y="1382"/>
      <point x="848" y="1402"/>
      <point x="798" y="1402" type="curve" smooth="yes"/>
      <point x="746" y="1402"/>
      <point x="726" y="1384"/>
      <point x="726" y="1336" type="curve" smooth="yes"/>
      <point x="726" y="1266"/>
      <point x="746" y="1236"/>
    </contour>
    <contour>
      <point x="396" y="1236" type="curve" smooth="yes"/>
      <point x="448" y="1236"/>
      <point x="468" y="1266"/>
      <point x="468" y="1330" type="curve" smooth="yes"/>
      <point x="468" y="1382"/>
      <point x="448" y="1402"/>
      <point x="398" y="1402" type="curve" smooth="yes"/>
      <point x="346" y="1402"/>
      <point x="326" y="1384"/>
      <point x="326" y="1336" type="curve" smooth="yes"/>
      <point x="326" y="1266"/>
      <point x="346" y="1236"/>
    </contour>
  </outline>
</glyph>
<glyph name="dollar.BRACKET.140" format="2">
  <advance width="1104"/>
  <outline>
    <contour>
      <point x="580" y="-18" type="curve" smooth="yes"/>
      <point x="876" y="-18"/>
      <point x="1008" y="154"/>
      <point x="1008" y="354" type="curve" smooth="yes"/>
      <point x="1008" y="530"/>
      <point x="906" y="626"/>
      <point x="578" y="736" type="curve" smooth="yes"/>
      <point x="310" y="826"/>
      <point x="196" y="886"/>
      <point x="196" y="1046" type="curve" smooth="yes"/>
      <point x="196" y="1246"/>
      <point x="362" y="1324"/>
      <point x="542" y="1328" type="curve"/>
      <point x="586" y="1328"/>
      <point x="756" y="1274"/>
      <point x="910" y="1214" type="curve"/>
      <point x="924" y="1286" type="line"/>
      <point x="826" y="1320"/>
      <point x="622" y="1392"/>
      <point x="548" y="1392" type="curve" smooth="yes"/>
      <point x="280" y="1392"/>
      <point x="132" y="1238"/>
      <point x="132" y="1046" type="curve" smooth="yes"/>
      <point x="132" y="850"/>
      <point x="284" y="768"/>
      <point x="552" y="680" type="curve" smooth="yes"/>
      <point x="796" y="600"/>
      <point x="944" y="532"/>
      <point x="944" y="356" type="curve" smooth="yes"/>
      <point x="944" y="128"/>
      <point x="780" y="50"/>
      <point x="580" y="46" type="curve"/>
      <point x="484" y="46"/>
      <point x="332" y="96"/>
      <point x="158" y="162" type="curve"/>
      <point x="148" y="88" type="line"/>
      <point x="306" y="34"/>
      <point x="484" y="-18"/>
    </contour>
    <contour>
      <point x="528" y="-274" type="curve"/>
      <point x="596" y="-274" type="line"/>
      <point x="596" y="-176"/>
      <point x="594" y="-76"/>
      <point x="594" y="18" type="curve"/>
      <point x="530" y="18" type="line"/>
      <point x="530" y="-76"/>
      <point x="528" y="-176"/>
    </contour>
    <contour>
      <point x="530" y="1350" type="curve"/>
      <point x="594" y="1350" type="line"/>
      <point x="594" y="1434"/>
      <point x="596" y="1522"/>
      <point x="596" y="1606" type="curve"/>
      <point x="528" y="1606" type="line"/>
      <point x="528" y="1522"/>
      <point x="530" y="1434"/>
    </contour>
  </outline>
</glyph>
<glyph name="dotaccentcomb.case" format="2">
  <anchor x="198" y="988" name="_top"/>
  <anchor x="196" y="1330" name="top"/>
  <outline>
    <contour>
      <point x="194" y="1236" type="curve" smooth="yes"/>
      <point x="248" y="1236"/>
      <point x="270" y="1268"/>
      <point x="270" y="1334" type="curve" smooth="yes"/>
      <point x="270" y="1390"/>
      <point x="248" y="1410"/>
      <point x="196" y="1410" type="curve" smooth="yes"/>
      <point x="142" y="1410"/>
      <point x="120" y="1392"/>
      <point x="120" y="1340" type="curve" smooth="yes"/>
      <point x="120" y="1268"/>
      <point x="142" y="1236"/>
    </contour>
  </outline>
</glyph>
<glyph name="five.dnom" format="2">
  <advance width="814"/>
  <outline>
    <contour>
      <point x="390" y="-12" type="curve" smooth="yes"/>
      <point x="604" y="-12"/>
      <point x="724" y="110"/>
      <point x="724" y="292" type="curve" smooth="yes"/>
      <point x="724" y="488"/>
      <point x="582" y="586"/>
      <point x="416" y="586" type="curve" smooth="yes"/>
      <point x="340" y="586"/>
      <point x="266" y="554"/>
      <point x="206" y="528" type="curve"/>
      <point x="198" y="528" type="line"/>
      <point x="198" y="598" type="line"/>
      <point x="200" y="708"/>
      <point x="200" y="788"/>
      <point x="202" y="884" type="curve"/>
      <point x="176" y="860" type="line"/>
      <point x="320" y="860" type="line"/>
      <point x="430" y="860"/>
      <point x="548" y="858"/>
      <point x="664" y="856" type="curve"/>
      <point x="664" y="918" type="line"/>
      <point x="136" y="918" type="line"/>
      <point x="138" y="812"/>
      <point x="138" y="734"/>
      <point x="140" y="594" type="curve"/>
      <point x="140" y="456" type="line"/>
      <point x="170" y="454" type="line"/>
      <point x="252" y="500"/>
      <point x="346" y="526"/>
      <point x="404" y="526" type="curve"/>
      <point x="550" y="524"/>
      <point x="662" y="464"/>
      <point x="662" y="292" type="curve" smooth="yes"/>
      <point x="662" y="138"/>
      <point x="574" y="50"/>
      <point x="388" y="48" type="curve"/>
      <point x="318" y="48"/>
      <point x="210" y="86"/>
      <point x="86" y="136" type="curve"/>
      <point x="76" y="66" type="line"/>
      <point x="192" y="28"/>
      <point x="320" y="-12"/>
    </contour>
  </outline>
</glyph>
<glyph name="four.dnom" format="2">
  <advance width="842"/>
  <outline>
    <contour>
      <point x="534" y="0" type="curve"/>
      <point x="600" y="0" type="line"/>
      <point x="598" y="82"/>
      <point x="598" y="146"/>
      <point x="596" y="248" type="curve"/>
      <point x="596" y="594" type="line"/>
      <point x="598" y="700"/>
      <point x="598" y="806"/>
      <point x="600" y="918" type="curve"/>
      <point x="528" y="918" type="line"/>
      <point x="484" y="856"/>
      <point x="438" y="792"/>
      <point x="394" y="730" type="curve"/>
      <point x="268" y="558" type="line"/>
      <point x="202" y="470"/>
      <point x="106" y="342"/>
      <point x="54" y="274" type="curve"/>
      <point x="54" y="222" type="line"/>
      <point x="570" y="222" type="line"/>
      <point x="638" y="222"/>
      <point x="736" y="218"/>
      <point x="798" y="218" type="curve"/>
      <point x="798" y="284" type="line"/>
      <point x="736" y="284"/>
      <point x="638" y="280"/>
      <point x="570" y="280" type="curve"/>
      <point x="552" y="280" type="line"/>
      <point x="108" y="280" type="line"/>
      <point x="118" y="254" type="line"/>
      <point x="164" y="318"/>
      <point x="202" y="374"/>
      <point x="252" y="444" type="curve"/>
      <point x="428" y="680" type="line"/>
      <point x="484" y="754"/>
      <point x="538" y="826"/>
      <point x="588" y="894" type="curve"/>
      <point x="534" y="880" type="line"/>
      <point x="536" y="784"/>
      <point x="538" y="686"/>
      <point x="538" y="590" type="curve"/>
      <point x="538" y="264" type="line"/>
      <point x="538" y="248" type="line"/>
      <point x="536" y="146"/>
      <point x="536" y="82"/>
    </contour>
  </outline>
</glyph>
<glyph name="won.BRACKET.140" format="2">
  <advance width="2106"/>
  <outline>
    <contour>
      <point x="572" y="0" type="curve"/>
      <point x="680" y="0" type="line"/>
      <point x="738" y="208"/>
      <point x="810" y="466"/>
      <point x="870" y="680" type="curve"/>
      <point x="1046" y="1290" type="line"/>
      <point x="1058" y="1290" type="line"/>
      <point x="1236" y="676" type="line"/>
      <point x="1296" y="462"/>
      <point x="1366" y="214"/>
      <point x="1426" y="0" type="curve"/>
      <point x="1534" y="0" type="line"/>
      <point x="1572" y="132"/>
      <point x="1618" y="292"/>
      <point x="1658" y="430" type="curve"/>
      <point x="1790" y="866" type="line"/>
      <point x="1834" y="1006"/>
      <point x="1896" y="1202"/>
      <point x="1948" y="1368" type="curve"/>
      <point x="1872" y="1368" type="line"/>
      <point x="1808" y="1150"/>
      <point x="1734" y="898"/>
      <point x="1674" y="694" type="curve"/>
      <point x="1486" y="72" type="line"/>
      <point x="1476" y="72" type="line"/>
      <point x="1298" y="682" type="line"/>
      <point x="1236" y="902"/>
      <point x="1166" y="1148"/>
      <point x="1104" y="1368" type="curve"/>
      <point x="998" y="1368" type="line"/>
      <point x="938" y="1152"/>
      <point x="868" y="902"/>
      <point x="808" y="686" type="curve"/>
      <point x="632" y="72" type="line"/>
      <point x="620" y="72" type="line"/>
      <point x="436" y="680" type="line"/>
      <point x="372" y="898"/>
      <point x="298" y="1150"/>
      <point x="234" y="1368" type="curve"/>
      <point x="158" y="1368" type="line"/>
      <point x="210" y="1202"/>
      <point x="274" y="998"/>
      <point x="320" y="852" type="curve"/>
      <point x="448" y="430" type="line"/>
      <point x="486" y="298"/>
      <point x="532" y="138"/>
    </contour>
    <contour>
      <point x="60" y="676" type="line"/>
      <point x="176" y="678"/>
      <point x="310" y="680"/>
      <point x="380" y="680" type="curve"/>
      <point x="380" y="736" type="line"/>
      <point x="310" y="736"/>
      <point x="176" y="738"/>
      <point x="60" y="740" type="curve"/>
    </contour>
    <contour>
      <point x="1726" y="680" type="line"/>
      <point x="1796" y="680"/>
      <point x="1930" y="678"/>
      <point x="2046" y="676" type="curve"/>
      <point x="2046" y="740" type="line"/>
      <point x="1930" y="738"/>
      <point x="1796" y="736"/>
      <point x="1726" y="736" type="curve"/>
    </contour>
  </outline>
</glyph>
